<svg width="28" height="28" viewBox="0 0 28 28" fill="none" xmlns="http://www.w3.org/2000/svg">
<path d="M14.1576 17.9377C16.1711 17.9377 17.8034 16.3054 17.8034 14.2918C17.8034 12.2783 16.1711 10.646 14.1576 10.646C12.144 10.646 10.5117 12.2783 10.5117 14.2918C10.5117 16.3054 12.144 17.9377 14.1576 17.9377Z" stroke="#1984C3" stroke-width="2"/>
<path d="M24.1087 12.9962C24.5802 13.5698 24.816 13.8554 24.816 14.2917C24.816 14.728 24.5802 15.0135 24.1087 15.5872C22.383 17.6823 18.5767 21.5833 14.158 21.5833C9.73924 21.5833 5.93299 17.6823 4.20729 15.5872C3.73576 15.0135 3.5 14.728 3.5 14.2917C3.5 13.8554 3.73576 13.5698 4.20729 12.9962C5.93299 10.901 9.73924 7 14.158 7C18.5767 7 22.383 10.901 24.1087 12.9962Z" stroke="#1984C3" stroke-width="2"/>
</svg>
