<svg width="68" height="67" viewBox="0 0 68 67" fill="none" xmlns="http://www.w3.org/2000/svg">
<path d="M66.3099 33.6323C66.3099 51.3198 51.9181 65.6666 34.1546 65.6666C16.3912 65.6666 1.99935 51.3198 1.99935 33.6323C1.99935 15.9448 16.3912 1.59798 34.1546 1.59798C51.9181 1.59798 66.3099 15.9448 66.3099 33.6323Z" stroke="#F2AF37" stroke-width="2.66667"/>
<path d="M32.5631 32.672H40.7359L39.8278 36.2926H32.5631V52.5851H28.9307V36.2926H21.666V32.672H28.9307V29.2831C28.9307 26.0554 29.2686 24.8842 29.9006 23.7038C30.5199 22.5377 31.4767 21.584 32.6467 20.9667C33.8308 20.3367 35.0059 20 38.2441 20C39.1922 20 40.024 20.0905 40.7359 20.2715V23.6206H38.2441C35.8395 23.6206 35.1076 23.7618 34.3593 24.16C33.8222 24.4397 33.3842 24.877 33.1043 25.4128C32.7048 26.1568 32.5631 26.8863 32.5631 29.2831V32.672Z" fill="#F2AF37"/>
</svg>
