<svg width="74" height="73" viewBox="0 0 74 73" fill="none" xmlns="http://www.w3.org/2000/svg">
<path d="M36.9906 71.4995C56.3092 71.4995 71.9792 55.8938 71.9792 36.6318C71.9792 17.3698 56.3092 1.76416 36.9906 1.76416C17.672 1.76416 2.00195 17.3698 2.00195 36.6318C2.00195 55.8938 17.672 71.4995 36.9906 71.4995Z" stroke="white" stroke-width="3"/>
<path d="M36.4636 44.1277C38.2494 44.1277 39.962 43.4206 41.2247 42.162C42.4874 40.9034 43.1968 39.1963 43.1968 37.4164C43.1968 35.6364 42.4874 33.9294 41.2247 32.6708C39.962 31.4122 38.2494 30.7051 36.4636 30.7051C34.6779 30.7051 32.9653 31.4122 31.7026 32.6708C30.4399 33.9294 29.7305 35.6364 29.7305 37.4164C29.7305 39.1963 30.4399 40.9034 31.7026 42.162C32.9653 43.4206 34.6779 44.1277 36.4636 44.1277Z" stroke="white" stroke-width="3.33333" stroke-linecap="round" stroke-linejoin="round"/>
<path d="M21.3125 44.1272V30.7046C21.3125 28.4796 22.1992 26.3458 23.7776 24.7725C25.356 23.1993 27.4968 22.3154 29.729 22.3154H43.1953C45.4275 22.3154 47.5682 23.1993 49.1466 24.7725C50.725 26.3458 51.6117 28.4796 51.6117 30.7046V44.1272C51.6117 46.3521 50.725 48.4859 49.1466 50.0592C47.5682 51.6324 45.4275 52.5163 43.1953 52.5163H29.729C27.4968 52.5163 25.356 51.6324 23.7776 50.0592C22.1992 48.4859 21.3125 46.3521 21.3125 44.1272Z" stroke="white" stroke-width="3.33333"/>
<path d="M45.7188 28.209L45.7395 28.1862" stroke="white" stroke-width="5" stroke-linecap="round" stroke-linejoin="round"/>
</svg>
