<svg width="68" height="67" viewBox="0 0 68 67" fill="none" xmlns="http://www.w3.org/2000/svg">
<path d="M65.8119 33.6323C65.8119 51.3198 51.42 65.6666 33.6566 65.6666C15.8932 65.6666 1.5013 51.3198 1.5013 33.6323C1.5013 15.9448 15.8932 1.59798 33.6566 1.59798C51.42 1.59798 65.8119 15.9448 65.8119 33.6323Z" stroke="#F2AF37" stroke-width="2.66667"/>
<path d="M33.1277 41.1287C34.9134 41.1287 36.6261 40.4216 37.8888 39.163C39.1515 37.9044 39.8609 36.1973 39.8609 34.4174C39.8609 32.6374 39.1515 30.9304 37.8888 29.6717C36.6261 28.4131 34.9134 27.7061 33.1277 27.7061C31.342 27.7061 29.6293 28.4131 28.3666 29.6717C27.1039 30.9304 26.3945 32.6374 26.3945 34.4174C26.3945 36.1973 27.1039 37.9044 28.3666 39.163C29.6293 40.4216 31.342 41.1287 33.1277 41.1287Z" stroke="#F2AF37" stroke-width="3.33333" stroke-linecap="round" stroke-linejoin="round"/>
<path d="M17.9785 41.1281V27.7055C17.9785 25.4806 18.8652 23.3468 20.4436 21.7735C22.022 20.2003 24.1628 19.3164 26.395 19.3164H39.8613C42.0935 19.3164 44.2342 20.2003 45.8126 21.7735C47.391 23.3468 48.2778 25.4806 48.2778 27.7055V41.1281C48.2778 43.3531 47.391 45.4869 45.8126 47.0601C44.2342 48.6334 42.0935 49.5173 39.8613 49.5173H26.395C24.1628 49.5173 22.022 48.6334 20.4436 47.0601C18.8652 45.4869 17.9785 43.3531 17.9785 41.1281Z" stroke="#F2AF37" stroke-width="3.33333"/>
<path d="M42.3848 25.2103L42.4055 25.1875" stroke="#F2AF37" stroke-width="5" stroke-linecap="round" stroke-linejoin="round"/>
</svg>
