<svg width="74" height="73" viewBox="0 0 74 73" fill="none" xmlns="http://www.w3.org/2000/svg">
<path d="M37.0101 71.2358C56.3287 71.2358 71.9987 55.6301 71.9987 36.3682C71.9987 17.1062 56.3287 1.50049 37.0101 1.50049C17.6916 1.50049 2.02148 17.1062 2.02148 36.3682C2.02148 55.6301 17.6916 71.2358 37.0101 71.2358Z" stroke="white" stroke-width="3"/>
<g clip-path="url(#clip0_987_291)">
<path d="M35.7163 52.5211C33.6114 52.5211 31.4365 52.5211 31.4085 52.5211H30.4963V51.5393C30.4963 51.4089 30.4963 51.3334 30.4963 51.251V43.2384C30.4963 39.1967 30.4963 35.1504 30.4963 31.0996C30.4963 30.7631 30.4963 30.413 30.4963 30.0903V29.4037C30.4863 29.2436 30.5109 29.0833 30.5685 28.9332C30.6261 28.783 30.7153 28.6464 30.8305 28.5324C30.9458 28.4183 31.0844 28.3293 31.2372 28.2712C31.3899 28.2132 31.5534 28.1873 31.7171 28.1953H40.1013L40.1996 29.1223C40.1996 29.2733 40.1996 29.4243 40.1996 29.5616L40.4031 29.4037C41.3795 28.6643 42.5139 28.1503 43.7217 27.9001C44.6225 27.711 45.5449 27.6394 46.4649 27.6872C48.0795 27.7364 49.6564 28.1777 51.0535 28.9712C52.412 29.7759 53.5187 30.93 54.2528 32.308C54.8154 33.3466 55.206 34.4659 55.4104 35.6242C55.5831 36.5 55.6724 37.3894 55.6771 38.2813C55.6771 38.5696 55.6771 38.858 55.6771 39.1395C55.6771 39.421 55.6771 39.8261 55.6771 40.2037V51.1892C55.6771 51.2784 55.6771 51.3676 55.6771 51.4706L55.621 52.5417H46.023L45.9668 51.4706C45.9668 51.3813 45.9668 51.2922 45.9668 51.2098V39.984C45.9785 39.4567 45.955 38.9293 45.8966 38.405C45.8403 37.8914 45.6982 37.3902 45.4757 36.9218C45.3241 36.5692 45.075 36.2649 44.7565 36.043C44.438 35.821 44.0627 35.6904 43.6726 35.6655C43.1365 35.5945 42.5908 35.6582 42.0869 35.8507C41.4651 36.1156 40.9479 36.5711 40.6135 37.1484C40.3535 37.5618 40.213 38.0363 40.2067 38.5216C40.2067 38.7688 40.2067 39.0092 40.2067 39.2563V51.1685C40.2067 51.2578 40.2067 51.3403 40.2067 51.4227L40.1963 52.5215H39.3989C39.1533 52.5558 37.5054 52.5211 35.7163 52.5211ZM32.5871 50.4613C33.9903 50.4613 36.6776 50.4613 38.1089 50.4613V39.2426C38.1089 38.9817 38.1089 38.7275 38.1089 38.4666C38.1208 37.6168 38.3629 36.7852 38.8105 36.0567C39.3763 35.0999 40.2459 34.3502 41.2872 33.9215C42.117 33.5971 43.018 33.486 43.9041 33.5988C44.6445 33.6644 45.3538 33.9207 45.9601 34.3416C46.5665 34.7625 47.048 35.3329 47.356 35.995C47.683 36.6605 47.8919 37.3755 47.9735 38.1096C48.0444 38.725 48.0748 39.3443 48.0646 39.9635V50.4613H53.5864V40.2244C53.5864 39.8811 53.5864 39.5378 53.5864 39.1945C53.5864 38.8512 53.5864 38.604 53.5864 38.3087C53.5827 37.5389 53.5052 36.7713 53.3548 36.0156C53.193 35.0561 52.873 34.1286 52.4075 33.2693C51.854 32.2209 51.0135 31.3436 49.98 30.7356C48.8827 30.1119 47.6424 29.7695 46.3738 29.7401C45.6376 29.7007 44.8992 29.7561 44.1777 29.9049C43.281 30.0875 42.4388 30.468 41.715 31.0173C41.1219 31.4807 40.6039 32.0292 40.1786 32.6444L39.5472 33.5164L38.144 32.8298L38.1089 32.1913V30.2344H32.6152C32.6152 30.5159 32.6152 30.7974 32.6152 31.0789C32.6152 35.1252 32.6152 39.1694 32.6152 43.2111L32.5871 50.4613ZM31.7382 29.1771V30.207H31.8225L31.7382 29.1771Z" fill="white"/>
<path d="M28.4751 52.5061H18.7578V51.1741V28.1734H28.4892L28.4751 52.5061ZM20.8486 50.4463H26.3703V30.2332H20.8486V50.4463Z" fill="white"/>
<path d="M23.6297 27.2536H23.5807C22.5222 27.2768 21.4794 27.0001 20.5778 26.457C20.0437 26.1302 19.5821 25.7016 19.2205 25.1968C18.8589 24.692 18.6047 24.1212 18.473 23.5184C18.17 22.3656 18.3097 21.1441 18.8658 20.0854C19.1788 19.4934 19.6144 18.9716 20.1446 18.5532C20.6749 18.1348 21.2883 17.8288 21.9459 17.6549C22.5274 17.4918 23.1302 17.4133 23.735 17.4216C24.6971 17.4132 25.6448 17.6498 26.4853 18.1081C27.1192 18.4462 27.6661 18.9211 28.0843 19.4969C28.5025 20.0727 28.781 20.7342 28.8988 21.4311C29.1237 22.4905 28.9702 23.5933 28.4639 24.5551C28.1464 25.172 27.6949 25.7135 27.141 26.1417C26.5871 26.5699 25.9443 26.8744 25.2575 27.0338C24.7273 27.1775 24.1798 27.2515 23.6297 27.2536ZM23.6297 19.5157C23.2593 19.5139 22.8908 19.5648 22.5353 19.6667C22.1532 19.7591 21.7951 19.929 21.4845 20.1656C21.1738 20.4021 20.9175 20.7001 20.7321 21.0399C20.4132 21.6527 20.3357 22.3589 20.5146 23.0241C20.5899 23.3685 20.7365 23.6943 20.9452 23.9812C21.154 24.2681 21.4205 24.5101 21.7284 24.6924C22.2987 25.0292 22.9569 25.1963 23.6227 25.1732C23.9846 25.1725 24.3451 25.1286 24.6962 25.0426C25.098 24.9556 25.4753 24.7833 25.8015 24.5377C26.1277 24.2921 26.3946 23.9793 26.5834 23.6215C26.8745 23.0674 26.9613 22.4319 26.8291 21.8225C26.7646 21.4172 26.6042 21.0322 26.3606 20.6984C26.1169 20.3646 25.7968 20.0912 25.4259 19.9C24.8872 19.6178 24.2826 19.4783 23.6718 19.4951L23.6297 19.5157Z" fill="white"/>
</g>
<defs>
<clipPath id="clip0_987_291">
<rect width="37.4238" height="35.0513" fill="white" transform="translate(18.2949 17.2066)"/>
</clipPath>
</defs>
</svg>
