<svg width="68" height="67" viewBox="0 0 68 67" fill="none" xmlns="http://www.w3.org/2000/svg">
<path d="M65.8314 33.3686C65.8314 51.0562 51.4396 65.403 33.6761 65.403C15.9127 65.403 1.52083 51.0562 1.52083 33.3686C1.52083 15.6811 15.9127 1.33431 33.6761 1.33431C51.4396 1.33431 65.8314 15.6811 65.8314 33.3686Z" stroke="#F2AF37" stroke-width="2.66667"/>
<g clip-path="url(#clip0_414_827)">
<path d="M32.3823 49.5211C30.2775 49.5211 28.1025 49.5211 28.0745 49.5211H27.1624V48.5393C27.1624 48.4089 27.1624 48.3334 27.1624 48.251V40.2384C27.1624 36.1967 27.1624 32.1504 27.1624 28.0996C27.1624 27.7631 27.1624 27.413 27.1624 27.0903V26.4037C27.1523 26.2436 27.1769 26.0833 27.2345 25.9332C27.2921 25.783 27.3813 25.6464 27.4965 25.5324C27.6118 25.4183 27.7504 25.3293 27.9032 25.2712C28.056 25.2132 28.2195 25.1873 28.3831 25.1953H36.7673L36.8656 26.1223C36.8656 26.2733 36.8656 26.4243 36.8656 26.5616L37.0691 26.4037C38.0455 25.6643 39.1799 25.1503 40.3877 24.9001C41.2886 24.711 42.2109 24.6394 43.131 24.6872C44.7456 24.7364 46.3224 25.1777 47.7195 25.9712C49.078 26.7759 50.1847 27.93 50.9189 29.308C51.4814 30.3466 51.8721 31.4659 52.0764 32.6242C52.2491 33.5 52.3384 34.3894 52.3431 35.2813C52.3431 35.5696 52.3431 35.858 52.3431 36.1395C52.3431 36.421 52.3431 36.8261 52.3431 37.2037V48.1892C52.3431 48.2784 52.3431 48.3676 52.3431 48.4706L52.287 49.5417H42.689L42.6328 48.4706C42.6328 48.3813 42.6328 48.2922 42.6328 48.2098V36.984C42.6445 36.4567 42.621 35.9293 42.5626 35.405C42.5063 34.8914 42.3642 34.3902 42.1417 33.9218C41.9901 33.5692 41.741 33.2649 41.4225 33.043C41.104 32.821 40.7287 32.6904 40.3386 32.6655C39.8025 32.5945 39.2568 32.6582 38.7529 32.8507C38.1311 33.1156 37.6139 33.5711 37.2795 34.1484C37.0195 34.5618 36.879 35.0363 36.8727 35.5216C36.8727 35.7688 36.8727 36.0092 36.8727 36.2563V48.1685C36.8727 48.2578 36.8727 48.3403 36.8727 48.4227L36.8623 49.5215H36.0649C35.8194 49.5558 34.1714 49.5211 32.3823 49.5211ZM29.2531 47.4613C30.6564 47.4613 33.3436 47.4613 34.7749 47.4613V36.2426C34.7749 35.9817 34.7749 35.7275 34.7749 35.4666C34.7869 34.6168 35.029 33.7852 35.4765 33.0567C36.0423 32.0999 36.912 31.3502 37.9532 30.9215C38.783 30.5971 39.684 30.486 40.5702 30.5988C41.3105 30.6644 42.0198 30.9207 42.6262 31.3416C43.2325 31.7625 43.7141 32.3329 44.022 32.995C44.349 33.6605 44.5579 34.3755 44.6395 35.1096C44.7104 35.725 44.7408 36.3443 44.7306 36.9635V47.4613H50.2524V37.2244C50.2524 36.8811 50.2524 36.5378 50.2524 36.1945C50.2524 35.8512 50.2524 35.604 50.2524 35.3087C50.2488 34.5389 50.1712 33.7713 50.0208 33.0156C49.859 32.0561 49.539 31.1286 49.0735 30.2693C48.52 29.2209 47.6796 28.3436 46.646 27.7356C45.5488 27.1119 44.3084 26.7695 43.0398 26.7401C42.3036 26.7007 41.5652 26.7561 40.8437 26.9049C39.9471 27.0875 39.1048 27.468 38.3811 28.0173C37.7879 28.4807 37.2699 29.0292 36.8446 29.6444L36.2132 30.5164L34.81 29.8298L34.7749 29.1913V27.2344H29.2812C29.2812 27.5159 29.2812 27.7974 29.2812 28.0789C29.2812 32.1252 29.2812 36.1694 29.2812 40.2111L29.2531 47.4613ZM28.4042 26.1771V27.207H28.4885L28.4042 26.1771Z" fill="#F2AF37"/>
<path d="M25.1412 49.5065H15.4238V48.1746V25.1738H25.1552L25.1412 49.5065ZM17.5146 47.4467H23.0363V27.2336H17.5146V47.4467Z" fill="#F2AF37"/>
<path d="M20.2957 24.2535H20.2467C19.1883 24.2767 18.1454 24 17.2438 23.4569C16.7097 23.1301 16.2481 22.7016 15.8865 22.1967C15.5249 21.6919 15.2707 21.1212 15.139 20.5183C14.8361 19.3655 14.9757 18.144 15.5318 17.0854C15.8449 16.4934 16.2804 15.9716 16.8106 15.5531C17.3409 15.1347 17.9544 14.8288 18.6119 14.6548C19.1934 14.4918 19.7962 14.4132 20.4011 14.4215C21.3631 14.4132 22.3109 14.6498 23.1513 15.1081C23.7852 15.4461 24.3321 15.921 24.7503 16.4968C25.1685 17.0727 25.447 17.7341 25.5648 18.4311C25.7897 19.4904 25.6362 20.5932 25.1299 21.5551C24.8124 22.172 24.3609 22.7135 23.807 23.1416C23.2531 23.5698 22.6103 23.8743 21.9235 24.0337C21.3933 24.1775 20.8459 24.2514 20.2957 24.2535ZM20.2957 16.5156C19.9253 16.5138 19.5568 16.5647 19.2013 16.6667C18.8192 16.759 18.4611 16.9289 18.1505 17.1655C17.8398 17.4021 17.5835 17.7 17.3982 18.0398C17.0792 18.6527 17.0018 19.3589 17.1806 20.024C17.2559 20.3684 17.4025 20.6942 17.6112 20.9811C17.82 21.2681 18.0865 21.51 18.3944 21.6924C18.9648 22.0291 19.623 22.1963 20.2887 22.1731C20.6506 22.1725 21.0111 22.1285 21.3622 22.0425C21.764 21.9555 22.1414 21.7833 22.4675 21.5376C22.7937 21.292 23.0606 20.9792 23.2495 20.6214C23.5405 20.0673 23.6273 19.4319 23.4951 18.8225C23.4306 18.4171 23.2703 18.0322 23.0266 17.6984C22.783 17.3646 22.4628 17.0911 22.0919 16.9C21.5532 16.6178 20.9486 16.4783 20.3379 16.495L20.2957 16.5156Z" fill="#F2AF37"/>
</g>
<defs>
<clipPath id="clip0_414_827">
<rect width="37.4238" height="35.0513" fill="white" transform="translate(14.9609 14.207)"/>
</clipPath>
</defs>
</svg>
