<svg width="374" height="346" viewBox="0 0 374 346" fill="none" xmlns="http://www.w3.org/2000/svg">
<path d="M8.5 83.8252L2 82.8252L4 80.8252C4.83333 77.6585 6.6 71.3252 7 71.3252C7.26475 71.3252 7.69013 67.0904 8.04418 62.8252C8.22504 60.6463 8.38729 58.4595 8.5 56.8252C9.5 54.8252 12 48.6252 14 39.8252C14.5 34.8251 15.5 26.3252 16 23.3252L16 23.325C16.5 20.3252 16.5 20.3251 17.5 16.8252C18.3 14.0252 18.8333 11.6585 19 10.8252H23H27H30.5L38 16.8252L40 13.8252L43.5 10.8252C45.1667 10.8252 49.1 10.1252 51.5 7.32516C54.5 3.82516 54.5 7.32516 62.5 2.32516C64.9 -0.074836 65.8333 1.32516 66 2.32516L67.5 7.32516V10.8252V13.8252L71 16.8252V20.3252C75 21.9918 83.6 25.5252 86 26.3252C88.4 27.1252 96 31.3252 99.5 33.3252C100.333 33.8252 102.6 34.9252 105 35.3252C108 35.8252 109 37.8252 112 39.8252C114.4 41.4252 118 45.4918 119.5 47.3252L124.5 50.8252C127.667 54.1585 134.4 61.1252 136 62.3252C137.6 63.5252 145.333 68.8252 149 71.3252H165.5H171.5C172 71.3252 177 67.3252 177 66.8252C177 66.3252 178 65.8252 178.5 65.3252C179 64.8252 180 61.3252 180 60.8252C180 60.4252 179.667 59.3252 179.5 58.8252L189.5 55.3252L194.5 60.3252C194.333 62.3252 194.1 66.9252 194.5 69.3252C195 72.3252 196.5 72.8252 200.5 78.3252C201.29 79.4111 201.846 80.2047 202.256 80.8252C203.925 83.3473 203.191 83.0099 206 87.8252C209.5 93.8252 208 90.8252 212.5 96.8252C214.5 98.8252 222 103.325 225.5 105.325V113.825V117.325V120.325L230.5 125.325V128.825C231.833 130.992 235.4 131.725 239 117.325C240.6 114.925 243.667 113.992 245 113.825H247L250 120.325L247 125.325V128.825V135.325V139.825L245.089 145.082L245 145.325C245.333 146.992 246.2 150.325 247 150.325H247.5H252H261.5H274C277.464 150.325 283.014 148.259 286.845 146.567C286.133 145.384 287.2 141.159 288 139.825C289.2 137.825 291.833 135.992 293 135.325C294.167 134.325 298.6 130.225 307 121.825C311 116.225 308.667 118.492 307 120.325C307.333 118.825 308.2 115.425 309 113.825C309.8 112.225 312 113.159 313 113.825L318 120.325L321 121.825L317 128.825C317.539 129.633 318.426 130.993 319.254 132.325C319.964 133.466 320.631 134.587 321 135.325C322 137.325 323 140.325 326 142.325C328.4 143.925 330.667 145.992 331.5 146.825H345.5H352.5L360.5 150.325L365.5 155.825C366.333 156.658 368 158.725 368 160.325C368 162.325 373.5 164.825 373.5 166.825V168.825L368 184.825C368 181.325 362.4 190.125 358 199.325C357.64 200.078 357.327 200.742 357.056 201.325H358C356.317 204.233 354.015 207.871 357.056 201.325H352.5C351.167 202.992 348.5 206.925 348.5 209.325V217.825V221.825V228.325H345.5L331.5 245.825C328 247.658 320.2 251.325 317 251.325C313.8 251.325 315.667 253.992 317 255.325C316.333 256.825 314.4 260.525 312 263.325C310.182 265.446 310.544 266.171 311.262 266.325H312C311.757 266.366 311.491 266.375 311.262 266.325H296.5H288H282L281 266.858L274.5 270.325C272.167 274.159 266.3 283.125 261.5 288.325C259.5 289.825 257 291.325 255 291.325C253 291.325 248.5 295.325 247 295.325C245.8 295.325 239.833 298.325 237 299.825L221 311.325C219.833 312.159 217.1 314.125 215.5 315.325C213.5 316.825 211 317.825 203 321.325C196.6 324.125 191.333 324.492 189.5 324.325L183 326.825L166.5 332.825C164.833 333.992 161 337.025 159 339.825C157 342.625 153.833 340.992 152.5 339.825L142 344.825H133H129C127.167 341.659 123.5 334.825 123.5 332.825C123.5 330.325 124.5 329.325 123.5 326.825C122.5 324.325 121 313.825 120.5 311.325C120 308.825 117 304.825 117 299.825V295.325V284.825V277.825V277.325V276.825C114.667 273.492 109.8 266.725 109 266.325C108 265.825 106 261.825 105 259.825C104 257.825 102.5 253.325 101.5 251.325C100.5 249.325 100.5 249.825 96 241.825C91.5 233.825 94.5 239.325 94 237.825C93.6 236.625 90.8333 232.658 89.5 230.825L83.5 222.325C82 220.992 78.6 217.925 77 216.325C75 214.325 73 212.825 71.5 211.325L68.5 208.325C67.5 206.658 65.5 202.825 65.5 200.825C65.5 198.325 64 198.325 64 195.825C64 193.825 63.3333 191.992 63 191.325V187.325L64 184.325V180.325C64.5 179.992 65.5 179.125 65.5 178.325V176.825L57.5 163.825C57.5 161.825 56 156.725 50 152.325C44 147.925 43.5 149.492 44 150.825C43.1667 149.492 41.2 146.425 40 144.825C38.5 142.825 38 142.325 38 141.325V137.825V133.825C36.8333 132.325 34.3 129.225 33.5 128.825C32.7 128.425 31.1667 125.325 30.5 123.825L28.5 118.325L25 113.325L23 111.325V107.825L8.5 83.8252Z" fill="url(#paint0_linear_987_346)" fill-opacity="0.3"/>
<path d="M230.5 128.825V125.325L225.5 120.325V117.325C225.5 117.492 225.5 117.025 225.5 113.825C225.5 110.625 225.5 106.825 225.5 105.325C222 103.325 214.5 98.8252 212.5 96.8252C208 90.8252 209.5 93.8252 206 87.8252C203.191 83.0099 203.925 83.3473 202.256 80.8252M230.5 128.825C231.833 130.992 235.4 131.725 239 117.325C240.6 114.925 243.667 113.992 245 113.825H247L250 120.325L247 125.325V128.825V135.325V139.825L245.089 145.082M230.5 128.825L233.5 135.325L234.5 137.325C235 137.825 236 138.925 236 139.325C236 139.725 238 141.825 239 142.825L243 144.825L245.089 145.082M171.5 71.3252C172 71.3252 177 67.3252 177 66.8252C177 66.3252 178 65.8252 178.5 65.3252C179 64.8252 180 61.3252 180 60.8252C180 60.4252 179.667 59.3252 179.5 58.8252L189.5 55.3252L194.5 60.3252C194.333 62.3252 194.1 66.9252 194.5 69.3252C195 72.3252 196.5 72.8252 200.5 78.3252C201.29 79.4111 201.846 80.2047 202.256 80.8252M171.5 71.3252C171.1 71.3252 167.333 71.3252 165.5 71.3252H149C145.333 68.8252 137.6 63.5252 136 62.3252C134.4 61.1252 127.667 54.1585 124.5 50.8252L119.5 47.3252C118 45.4918 114.4 41.4252 112 39.8252C109 37.8252 108 35.8252 105 35.3252C102.6 34.9252 100.333 33.8252 99.5 33.3252C96 31.3252 88.4 27.1252 86 26.3252C83.6 25.5252 75 21.9918 71 20.3252M171.5 71.3252L177 72.3252L182 72.8252C183.333 72.9919 186 73.4252 186 73.8252C186 74.3252 187 77.8252 187.5 78.8252C188 79.8252 188 80.3252 188.5 80.8252C188.9 81.2252 195 81.9919 198 82.3252L201.5 80.8252H202.256M71 20.3252V16.8252L67.5 13.8252V10.8252V7.32516L66 2.32516C65.8333 1.32516 64.9 -0.074836 62.5 2.32516C54.5 7.32516 54.5 3.82516 51.5 7.32516C49.1 10.1252 45.1667 10.8252 43.5 10.8252L40 13.8252L38 16.8252L30.5 10.8252H27H23H19C18.8333 11.6585 18.3 14.0252 17.5 16.8252C16.5 20.3252 16.5 20.3252 16 23.3252C15.5 26.3252 14.5 34.8251 14 39.8252C12 48.6252 9.5 54.8252 8.5 56.8252C8.38729 58.4595 8.22504 60.6463 8.04418 62.8252M71 20.3252L68.5 20.8252C67.8333 21.3252 66.3 22.3252 65.5 22.3252C64.5 22.3252 64 24.3252 62.5 24.8252C61 25.3252 62 25.8252 61.5 26.3252C61.1 26.7251 57.6667 27.1585 56 27.3252C50.8333 28.1585 40.5 30.0252 40.5 30.8252C40.5 31.8252 41.5 32.8252 42 33.3252C42.5 33.8252 46 39.3252 47.5 40.3252C49 41.3252 51 43.8252 51.5 44.8252C51.9 45.6252 51.3333 47.1585 51 47.8252L49.5 49.3252C49.1667 50.8252 48.3 54.0252 47.5 54.8252C46.5 55.8252 45 56.3252 44 56.3252C43 56.3252 42.5 56.3252 40.5 56.3252C38.5 56.3252 37.5 56.8252 35.5 57.8252C33.9 58.6252 34.1667 58.8252 34.5 58.8252L32 63.3252C31.5 63.4919 30.4 63.9252 30 64.3252C29.5 64.8252 27.5 66.8252 27 67.3252C26.5 67.8252 24 68.3252 23.5 68.3252C23 68.3252 21.5 68.3252 18 67.3252C14.5 66.3252 15.5 66.3252 14.5 65.8252C13.7 65.4252 12.5 64.9919 12 64.8252L8.04418 62.8252M281 266.858L274.5 270.325C272.167 274.158 266.3 283.125 261.5 288.325C259.5 289.825 257 291.325 255 291.325C253 291.325 248.5 295.325 247 295.325C245.8 295.325 239.833 298.325 237 299.825L221 311.325C219.833 312.158 217.1 314.125 215.5 315.325C213.5 316.825 211 317.825 203 321.325C196.6 324.125 191.333 324.492 189.5 324.325L183 326.825L166.5 332.825C164.833 333.992 161 337.025 159 339.825C157 342.625 153.833 340.992 152.5 339.825L142 344.825H133H129C127.167 341.658 123.5 334.825 123.5 332.825C123.5 330.325 124.5 329.325 123.5 326.825C122.5 324.325 121 313.825 120.5 311.325C120 308.825 117 304.825 117 299.825C117 295.825 117 295.158 117 295.325V284.825V277.825M281 266.858L282 266.325C282.167 266.325 283.6 266.325 288 266.325C293.5 266.325 286 266.325 296.5 266.325C304.9 266.325 310.333 266.325 312 266.325C311 266.492 309.6 266.125 312 263.325C314.4 260.525 316.333 256.825 317 255.325C315.667 253.992 313.8 251.325 317 251.325C320.2 251.325 328 247.658 331.5 245.825L345.5 228.325H348.5V221.825V217.825V209.325C348.5 206.925 351.167 202.992 352.5 201.325C354.1 201.325 356.833 201.325 358 201.325C356.167 204.492 353.6 208.525 358 199.325C362.4 190.125 368 181.325 368 184.825L373.5 168.825C373.5 168.825 373.5 168.425 373.5 166.825C373.5 164.825 368 162.325 368 160.325C368 158.725 366.333 156.658 365.5 155.825L360.5 150.325L352.5 146.825C352.5 146.825 351.1 146.825 345.5 146.825C339.9 146.825 333.833 146.825 331.5 146.825C330.667 145.992 328.4 143.925 326 142.325C323 140.325 322 137.325 321 135.325C320.631 134.587 319.964 133.466 319.254 132.325M281 266.858L274.5 259.825C274 257.992 272.9 254.225 272.5 253.825C272.1 253.425 270.667 250.325 270 248.825L267.5 244.325L263 237.325L260.5 231.825M260.5 231.825L275.5 227.325L284 223.325L291.5 219.825L301 215.825L305.5 210.825L311 194.825L313 187.325V178.825L309 173.825L305.5 168.825M260.5 231.825L257 232.825L253 233.825C252.5 233.825 251.3 233.925 250.5 234.325C249.5 234.825 249 235.325 247 235.325C245 235.325 243.5 235.825 240.5 236.325C237.5 236.825 240.5 236.825 235.5 237.325C230.5 237.825 230.5 238.825 227.5 238.825C224.5 238.825 224 239.325 222 239.325C220 239.325 219.5 238.825 217.5 239.325C215.5 239.825 204.5 246.825 203 247.825C201.5 248.825 201.5 249.325 199.5 250.825C197.5 252.325 198 252.825 197 253.825C196 254.825 195.5 256.325 194.5 258.325C193.5 260.325 193.5 260.825 193 261.825C192.5 262.825 194.5 261.825 192 264.325C189.5 266.825 189.5 267.325 188.5 267.825C187.5 268.325 185 268.825 184.5 268.825C184.1 268.825 180.333 266.492 178.5 265.325L173 264.325C170.167 264.492 164.4 264.725 164 264.325C163.5 263.825 158.5 264.325 156 263.825C153.5 263.325 157.5 263.825 147.5 262.825C139.5 262.025 135.167 262.159 134 262.325C132.333 261.992 128.9 261.225 128.5 260.825C128 260.325 129.5 258.825 126.5 259.825C123.5 260.825 122.5 261.825 122.5 262.825C122.5 263.825 122.5 263.325 122.5 264.825C122.5 266.325 122.5 268.325 122 269.825C121.5 271.325 121.5 273.825 121 274.325C120.5 274.825 120.5 275.325 119.5 276.325C118.5 277.325 117.5 277.825 117 277.825M305.5 168.825L307 158.825V151.825L308 147.825L311 146.825L312.5 141.325V133.825L313 130.325H314.5L317 132.325H319.254M305.5 168.825H297.5H286.5H275.5H266L247.5 150.325M319.254 132.325C318.426 130.993 317.539 129.633 317 128.825L321 121.825L318 120.325L313 113.825C312 113.158 309.8 112.225 309 113.825C308.2 115.425 307.333 118.825 307 120.325C308.667 118.492 311 116.225 307 121.825C298.6 130.225 294.167 134.325 293 135.325C291.833 135.992 289.2 137.825 288 139.825C286.8 141.825 285 150.325 289.5 145.325C286.167 146.992 278.4 150.325 274 150.325C268.5 150.325 264.5 150.325 261.5 150.325C259.1 150.325 254.167 150.325 252 150.325C250.871 150.325 248.642 150.325 247.5 150.325M247.5 150.325C247.293 150.325 247.123 150.325 247 150.325C246.2 150.325 245.333 146.992 245 145.325L245.089 145.082M8.04418 62.8252C7.69013 67.0904 7.26475 71.3252 7 71.3252C6.6 71.3252 4.83333 77.6585 4 80.8252L2 82.8252L8.5 83.8252L23 107.825V111.325L25 113.325L28.5 118.325L30.5 123.825C31.1667 125.325 32.7 128.425 33.5 128.825C34.3 129.225 36.8333 132.325 38 133.825C38 134.658 38 136.625 38 137.825C38 139.325 38 140.325 38 141.325C38 142.325 38.5 142.825 40 144.825C41.2 146.425 43.1667 149.492 44 150.825C43.5 149.492 44 147.925 50 152.325C56 156.725 57.5 161.825 57.5 163.825L65.5 176.825C65.5 176.992 65.5 177.525 65.5 178.325C65.5 179.125 64.5 179.992 64 180.325V184.325L63 187.325V191.325C63.3333 191.992 64 193.825 64 195.825C64 198.325 65.5 198.325 65.5 200.825C65.5 202.825 67.5 206.658 68.5 208.325C69 208.825 70.3 210.125 71.5 211.325C73 212.825 75 214.325 77 216.325C78.6 217.925 82 220.992 83.5 222.325L89.5 230.825C90.8333 232.658 93.6 236.625 94 237.825C94.5 239.325 91.5 233.825 96 241.825C100.5 249.825 100.5 249.325 101.5 251.325C102.5 253.325 104 257.825 105 259.825C106 261.825 108 265.825 109 266.325C109.8 266.725 114.667 273.492 117 276.825V277.325V277.825" stroke="white" stroke-opacity="0.5"/>
<defs>
<linearGradient id="paint0_linear_987_346" x1="-133.5" y1="-212" x2="245" y2="382.5" gradientUnits="userSpaceOnUse">
<stop stop-color="white" stop-opacity="0.42"/>
<stop offset="1" stop-color="white" stop-opacity="0"/>
</linearGradient>
</defs>
</svg>
