<svg width="68" height="67" viewBox="0 0 68 67" fill="none" xmlns="http://www.w3.org/2000/svg">
<path d="M66.3314 33.3667C66.3314 51.0542 51.9396 65.401 34.1761 65.401C16.4127 65.401 2.02083 51.0542 2.02083 33.3667C2.02083 15.6792 16.4127 1.33236 34.1761 1.33236C51.9396 1.33236 66.3314 15.6792 66.3314 33.3667Z" stroke="#F2AF37" stroke-width="2.66667"/>
<path d="M32.2692 37.3922L30.7878 39.0643L22.9037 47.9824C22.3478 48.6116 21.7945 49.2457 21.2285 49.87C21.1493 49.9623 21.0374 50.0224 20.9148 50.0385C20.0505 50.0509 19.1835 50.0385 18.2324 50.0385C18.3319 49.9023 18.3854 49.813 18.4517 49.7362L23.5131 44.0138C25.9456 41.2641 28.3798 38.5144 30.8158 35.7646C30.847 35.737 30.872 35.7033 30.889 35.6658C30.9061 35.6283 30.9149 35.5877 30.9149 35.5467C30.9149 35.5056 30.9061 35.465 30.889 35.4275C30.872 35.3899 30.847 35.3563 30.8158 35.3286C28.968 32.7226 27.1228 30.1133 25.2801 27.5006L18.4186 17.7799C18.3676 17.708 18.3267 17.6288 18.2477 17.5024C18.4134 17.5024 18.5333 17.4801 18.6531 17.4801C21.6364 17.4801 24.6197 17.4801 27.6056 17.4801C27.7188 17.4715 27.8321 17.4944 27.9324 17.5462C28.0327 17.5979 28.1157 17.6765 28.1716 17.7725C29.6403 19.8699 31.1149 21.9639 32.5955 24.0547C33.7855 25.7392 34.9754 27.4238 36.1653 29.1083C36.2341 29.2074 36.3157 29.2991 36.4203 29.4205C36.892 28.8928 37.3382 28.3973 37.7819 27.8969C40.7635 24.5229 43.7426 21.1473 46.719 17.77C46.7946 17.6734 46.8934 17.5963 47.0067 17.5453C47.1201 17.4944 47.2446 17.4711 47.3693 17.4776C48.0526 17.495 48.736 17.4776 49.4091 17.4776C49.5213 17.4776 49.6335 17.4777 49.8324 17.4975C49.4627 17.9236 49.1414 18.2976 48.8124 18.6642C47.1126 20.5915 45.4127 22.5172 43.7128 24.4412C42.2798 26.0596 40.8468 27.6756 39.4138 29.2892C38.9038 29.8763 38.3939 30.4732 37.8533 31.0504C37.6621 31.2585 37.7844 31.3923 37.8941 31.5459C39.0619 33.1974 40.228 34.8447 41.3924 36.488C42.822 38.5143 44.2508 40.5432 45.6787 42.5746C47.3463 44.9362 49.0156 47.2954 50.6866 49.652C50.7554 49.7511 50.8217 49.8552 50.9212 50.0087C50.7605 50.0087 50.6534 50.0335 50.5463 50.0335C47.563 50.0335 44.5772 50.0335 41.5939 50.0335C41.4699 50.0417 41.3461 50.0157 41.2366 49.9588C41.127 49.9019 41.0361 49.8162 40.9743 49.7115C38.4245 46.0964 35.8746 42.4862 33.3248 38.881L32.2692 37.3922ZM46.9485 47.9898C46.8414 47.8214 46.7777 47.7148 46.7063 47.6133C45.6711 46.1666 44.6333 44.7207 43.593 43.2756C41.7843 40.7637 39.9756 38.2526 38.1669 35.7423C36.8818 33.9554 35.6001 32.1685 34.3218 30.3816C32.7018 28.1257 31.081 25.8705 29.4593 23.6162C28.5669 22.3727 27.6761 21.1283 26.787 19.8831C26.7277 19.7885 26.643 19.7115 26.5418 19.6604C26.4407 19.6093 26.3271 19.5861 26.2133 19.5932C24.9869 19.6081 23.7604 19.5932 22.5365 19.5932C22.4371 19.5932 22.3376 19.6081 22.1719 19.618C22.2841 19.784 22.3606 19.9029 22.4422 20.0193C23.3907 21.3347 24.3418 22.6452 25.2878 23.9631C27.0454 26.4123 28.8014 28.8622 30.5557 31.313C32.4358 33.9257 34.3167 36.5383 36.1985 39.151C38.2519 42.0048 40.2994 44.8602 42.341 47.7173C42.3977 47.8124 42.4809 47.8901 42.5811 47.9414C42.6812 47.9926 42.7942 48.0154 42.9071 48.0071C44.1233 47.9947 45.337 48.0071 46.5507 48.0071C46.6629 48.0096 46.7726 47.9997 46.9485 47.9898Z" fill="#F2AF37"/>
</svg>
