<svg width="56" height="55" viewBox="0 0 56 55" fill="none" xmlns="http://www.w3.org/2000/svg">
<g filter="url(#filter0_b_727_15159)">
<rect width="56" height="55" rx="27.5" fill="black" fill-opacity="0.3"/>
<rect x="0.5" y="0.5" width="55" height="54" rx="27" stroke="white" stroke-opacity="0.2"/>
</g>
<path d="M13.7852 41.25C14.0179 40.3775 14.2505 39.549 14.4687 38.7201C14.8613 37.2659 15.2395 35.8842 15.6177 34.4591C15.6454 34.379 15.6454 34.292 15.6177 34.212C15.0083 33.137 14.5531 31.982 14.2652 30.7803C13.8926 29.264 13.7795 27.6956 13.9307 26.1415C14.0837 24.4847 14.5474 22.8715 15.2977 21.3863C16.2757 19.4089 17.718 17.6974 19.501 16.3982C20.8179 15.4406 22.2955 14.7262 23.8641 14.2894C25.3133 13.8697 26.8217 13.693 28.3287 13.766C30.637 13.8753 32.8794 14.5712 34.8442 15.7876C36.979 17.0929 38.7148 18.9589 39.862 21.1825C40.5542 22.5003 41.0165 23.9263 41.229 25.3995C41.3963 26.6251 41.3963 27.8677 41.229 29.0932C40.9853 31.23 40.2376 33.2783 39.0475 35.0697C38.0024 36.6556 36.6346 38.0037 35.0334 39.0254C33.6248 39.9445 32.0561 40.5908 30.4087 40.9305C29.191 41.192 27.9424 41.2796 26.7 41.1918C24.7478 41.0614 22.8448 40.5215 21.1152 39.6069C21.0807 39.5921 21.0437 39.5842 21.0062 39.5842C20.9687 39.5842 20.9316 39.5921 20.8972 39.6069L14.9778 41.0611L13.7852 41.25ZM23.1369 21.0952C22.4097 21.0952 22.2206 21.1533 21.9297 21.4296C21.5286 21.7734 21.2027 22.1961 20.9724 22.6715C20.7422 23.1469 20.6127 23.6646 20.5918 24.1924C20.5617 25.1533 20.8091 26.1022 21.3044 26.9261C21.8622 27.8959 22.5095 28.8118 23.2385 29.6605C24.1616 30.7779 25.2622 31.7355 26.4962 32.4958C27.3299 32.9684 28.2126 33.3491 29.1287 33.6304C29.9807 33.9769 30.9029 34.1162 31.8194 34.0373C32.6704 33.9172 33.4471 33.4874 34.0009 32.8302C34.3688 32.3195 34.5531 31.6995 34.5243 31.0707C34.5368 30.9584 34.5106 30.845 34.4497 30.7498C34.3888 30.6545 34.297 30.5833 34.1898 30.5474L32.4883 29.7039C32.1102 29.5294 31.7174 29.3551 31.3248 29.2097C30.9321 29.0642 30.8886 29.2099 30.6995 29.4134C30.5104 29.617 29.9723 30.3295 29.5942 30.7803C29.5279 30.8668 29.4331 30.9268 29.3268 30.9507C29.2205 30.9746 29.1092 30.9607 29.0122 30.9109L28.7942 30.8094C26.8759 30.0318 25.2734 28.6342 24.2422 26.8395C24.1947 26.7837 24.1593 26.7181 24.1386 26.6478C24.1178 26.5775 24.1119 26.5039 24.1215 26.4312C24.1311 26.3586 24.156 26.2885 24.1943 26.226C24.2326 26.1635 24.2834 26.1099 24.3438 26.0684C24.6942 25.738 24.9846 25.3492 25.202 24.9195C25.2384 24.8345 25.257 24.7429 25.257 24.6504C25.257 24.5579 25.2384 24.4663 25.202 24.3813C24.8675 23.567 24.5185 22.7385 24.184 21.9096C23.9804 21.3716 23.675 21.0952 23.1369 21.0952Z" fill="white" fill-opacity="0.8"/>
<defs>
<filter id="filter0_b_727_15159" x="-4" y="-4" width="64" height="63" filterUnits="userSpaceOnUse" color-interpolation-filters="sRGB">
<feFlood flood-opacity="0" result="BackgroundImageFix"/>
<feGaussianBlur in="BackgroundImageFix" stdDeviation="2"/>
<feComposite in2="SourceAlpha" operator="in" result="effect1_backgroundBlur_727_15159"/>
<feBlend mode="normal" in="SourceGraphic" in2="effect1_backgroundBlur_727_15159" result="shape"/>
</filter>
</defs>
</svg>
