<svg width="73" height="73" viewBox="0 0 73 73" fill="none" xmlns="http://www.w3.org/2000/svg">
<path d="M36.5101 71.2344C55.8287 71.2344 71.4987 55.6287 71.4987 36.3667C71.4987 17.1047 55.8287 1.49902 36.5101 1.49902C17.1916 1.49902 1.52148 17.1047 1.52148 36.3667C1.52148 55.6287 17.1916 71.2344 36.5101 71.2344Z" stroke="white" stroke-width="3"/>
<path d="M34.6031 40.3922L33.1217 42.0643L25.2376 50.9824C24.6818 51.6116 24.1285 52.2457 23.5624 52.87C23.4833 52.9623 23.3714 53.0224 23.2488 53.0385C22.3844 53.0509 21.5175 53.0385 20.5664 53.0385C20.6658 52.9023 20.7194 52.813 20.7857 52.7362L25.8471 47.0138C28.2796 44.2641 30.7138 41.5144 33.1498 38.7646C33.181 38.737 33.2059 38.7033 33.223 38.6658C33.2401 38.6283 33.2489 38.5877 33.2489 38.5467C33.2489 38.5056 33.2401 38.465 33.223 38.4275C33.2059 38.3899 33.181 38.3563 33.1498 38.3286C31.302 35.7226 29.4568 33.1133 27.6141 30.5006L20.7525 20.7799C20.7015 20.708 20.6607 20.6288 20.5817 20.5024C20.7474 20.5024 20.8673 20.4801 20.9871 20.4801C23.9704 20.4801 26.9537 20.4801 29.9396 20.4801C30.0528 20.4715 30.1661 20.4944 30.2664 20.5462C30.3667 20.5979 30.4497 20.6765 30.5056 20.7725C31.9743 22.8699 33.4489 24.9639 34.9295 27.0547C36.1194 28.7392 37.3094 30.4238 38.4993 32.1083C38.5681 32.2074 38.6497 32.2991 38.7543 32.4205C39.226 31.8928 39.6722 31.3973 40.1159 30.8969C43.0975 27.5229 46.0765 24.1473 49.053 20.77C49.1286 20.6734 49.2274 20.5963 49.3407 20.5453C49.454 20.4944 49.5785 20.4711 49.7033 20.4776C50.3866 20.495 51.07 20.4776 51.7431 20.4776C51.8553 20.4776 51.9675 20.4777 52.1664 20.4975C51.7966 20.9236 51.4754 21.2976 51.1464 21.6642C49.4465 23.5915 47.7467 25.5172 46.0468 27.4412C44.6138 29.0596 43.1808 30.6756 41.7478 32.2892C41.2378 32.8763 40.7279 33.4732 40.1873 34.0504C39.9961 34.2585 40.1184 34.3923 40.2281 34.5459C41.3959 36.1974 42.562 37.8447 43.7264 39.488C45.156 41.5143 46.5848 43.5432 48.0127 45.5746C49.6803 47.9362 51.3496 50.2954 53.0206 52.652C53.0894 52.7511 53.1557 52.8552 53.2551 53.0087C53.0945 53.0087 52.9874 53.0335 52.8803 53.0335C49.897 53.0335 46.9112 53.0335 43.9279 53.0335C43.8039 53.0417 43.6801 53.0157 43.5705 52.9588C43.461 52.9019 43.3701 52.8162 43.3083 52.7115C40.7584 49.0964 38.2086 45.4862 35.6588 41.881L34.6031 40.3922ZM49.2825 50.9898C49.1754 50.8214 49.1117 50.7148 49.0403 50.6133C48.005 49.1666 46.9673 47.7207 45.9269 46.2756C44.1183 43.7637 42.3096 41.2526 40.5009 38.7423C39.2158 36.9554 37.9341 35.1685 36.6558 33.3816C35.0358 31.1257 33.415 28.8705 31.7933 26.6162C30.9009 25.3727 30.0101 24.1283 29.121 22.8831C29.0617 22.7885 28.9769 22.7115 28.8758 22.6604C28.7747 22.6093 28.6611 22.5861 28.5473 22.5932C27.3208 22.6081 26.0944 22.5932 24.8705 22.5932C24.771 22.5932 24.6716 22.6081 24.5059 22.618C24.6181 22.784 24.6946 22.9029 24.7762 23.0193C25.7247 24.3347 26.6758 25.6452 27.6217 26.9631C29.3794 29.4123 31.1354 31.8622 32.8897 34.313C34.7697 36.9257 36.6507 39.5383 38.5325 42.151C40.5859 45.0048 42.6334 47.8602 44.6749 50.7173C44.7317 50.8124 44.8149 50.8901 44.915 50.9414C45.0152 50.9926 45.1282 51.0154 45.2411 51.0071C46.4573 50.9947 47.671 51.0071 48.8847 51.0071C48.9969 51.0096 49.1066 50.9997 49.2825 50.9898Z" fill="white"/>
</svg>
