<svg width="73" height="73" viewBox="0 0 73 73" fill="none" xmlns="http://www.w3.org/2000/svg">
<path d="M36.4945 71.4975C55.8131 71.4975 71.4831 55.8919 71.4831 36.6299C71.4831 17.3679 55.8131 1.76221 36.4945 1.76221C17.1759 1.76221 1.50586 17.3679 1.50586 36.6299C1.50586 55.8919 17.1759 71.4975 36.4945 71.4975Z" stroke="white" stroke-width="3"/>
<path d="M42.0617 34.4525L34.75 30.2561C34.3207 30.0098 33.834 29.8803 33.3386 29.8806C32.8433 29.881 32.3567 30.0112 31.9278 30.2582C31.4989 30.5052 31.1426 30.8602 30.8949 31.2878C30.6471 31.7153 30.5165 32.2003 30.5161 32.694V41.0827C30.5101 42.0881 31.0483 43.018 31.9234 43.5147C32.3525 43.7645 32.8403 43.8965 33.3372 43.8972C33.8341 43.8979 34.3223 43.7673 34.752 43.5187L42.0617 39.3223C42.4911 39.0763 42.8478 38.7217 43.0959 38.2944C43.3439 37.8671 43.4745 37.3821 43.4745 36.8884C43.4745 36.3947 43.3439 35.9097 43.0959 35.4824C42.8478 35.0551 42.4911 34.7005 42.0617 34.4544V34.4525ZM41.065 37.5957L33.7573 41.794C33.6307 41.8681 33.4865 41.9071 33.3397 41.9071C33.1929 41.9071 33.0487 41.8681 32.9221 41.794C32.7954 41.7226 32.6902 41.6185 32.6177 41.4926C32.5451 41.3668 32.5077 41.2239 32.5095 41.0788V32.694C32.5081 32.5493 32.5456 32.4067 32.6182 32.2813C32.6907 32.1559 32.7957 32.0521 32.9221 31.9808C33.0476 31.9046 33.1918 31.8643 33.3387 31.8643C33.4857 31.8643 33.6298 31.9046 33.7553 31.9808L41.065 36.1791C41.1911 36.25 41.296 36.3531 41.369 36.4777C41.4419 36.6024 41.4804 36.7441 41.4804 36.8884C41.4804 37.0327 41.4419 37.1744 41.369 37.299C41.296 37.4237 41.1911 37.5248 41.065 37.5957ZM50.4498 20.9912H22.5426C20.9571 20.9928 19.4369 21.6213 18.3158 22.7388C17.1946 23.8563 16.5641 25.3715 16.5625 26.9519V46.8209C16.5641 48.4013 17.1946 49.9165 18.3158 51.034C19.4369 52.1515 20.9571 52.78 22.5426 52.7816H50.4498C52.0354 52.78 53.5555 52.1515 54.6767 51.034C55.7978 49.9165 56.4284 48.4013 56.4299 46.8209V26.9519C56.4284 25.3715 55.7978 23.8563 54.6767 22.7388C53.5555 21.6213 52.0354 20.9928 50.4498 20.9912ZM54.4366 46.8209C54.435 47.8743 54.0144 48.8842 53.2671 49.6291C52.5198 50.3739 51.5067 50.7931 50.4498 50.7947H22.5426C21.4858 50.7931 20.4726 50.3739 19.7253 49.6291C18.978 48.8842 18.5575 47.8743 18.5559 46.8209V26.9519C18.5575 25.8985 18.978 24.8886 19.7253 24.1437C20.4726 23.3989 21.4858 22.9797 22.5426 22.9781H50.4498C51.5067 22.9797 52.5198 23.3989 53.2671 24.1437C54.0144 24.8886 54.435 25.8985 54.4366 26.9519V46.8209Z" fill="white"/>
</svg>
