<svg width="68" height="67" viewBox="0 0 68 67" fill="none" xmlns="http://www.w3.org/2000/svg">
<path d="M66.3158 33.6304C66.3158 51.3179 51.9239 65.6647 34.1605 65.6647C16.3971 65.6647 2.00521 51.3179 2.00521 33.6304C2.00521 15.9428 16.3971 1.59603 34.1605 1.59603C51.9239 1.59603 66.3158 15.9428 66.3158 33.6304Z" stroke="#F2AF37" stroke-width="2.66667"/>
<path d="M39.7297 31.4534L32.418 27.2571C31.9887 27.0107 31.502 26.8813 31.0066 26.8816C30.5112 26.882 30.0247 27.0122 29.5958 27.2592C29.1668 27.5061 28.8106 27.8612 28.5628 28.2888C28.3151 28.7163 28.1844 29.2013 28.1841 29.695V38.0837C28.1781 39.0891 28.7163 40.019 29.5914 40.5157C30.0204 40.7655 30.5083 40.8975 31.0051 40.8982C31.502 40.8989 31.9902 40.7683 32.42 40.5196L39.7297 36.3233C40.1591 36.0773 40.5158 35.7227 40.7639 35.2954C41.0119 34.868 41.1425 34.3831 41.1425 33.8894C41.1425 33.3957 41.0119 32.9107 40.7639 32.4834C40.5158 32.056 40.1591 31.7015 39.7297 31.4554V31.4534ZM38.733 34.5967L31.4253 38.795C31.2987 38.8691 31.1545 38.9081 31.0077 38.9081C30.8609 38.9081 30.7167 38.8691 30.5901 38.795C30.4634 38.7235 30.3582 38.6194 30.2856 38.4936C30.213 38.3678 30.1757 38.2249 30.1774 38.0797V29.695C30.176 29.5502 30.2136 29.4077 30.2861 29.2823C30.3587 29.1568 30.4636 29.0531 30.5901 28.9817C30.7156 28.9056 30.8597 28.8653 31.0067 28.8653C31.1536 28.8653 31.2978 28.9056 31.4233 28.9817L38.733 33.18C38.8591 33.251 38.9639 33.3541 39.0369 33.4787C39.1099 33.6033 39.1484 33.7451 39.1484 33.8894C39.1484 34.0337 39.1099 34.1754 39.0369 34.3C38.9639 34.4247 38.8591 34.5257 38.733 34.5967ZM48.1178 17.9922H20.2106C18.625 17.9938 17.1049 18.6223 15.9838 19.7398C14.8626 20.8573 14.2321 22.3725 14.2305 23.9529V43.8219C14.2321 45.4023 14.8626 46.9175 15.9838 48.035C17.1049 49.1525 18.625 49.781 20.2106 49.7826H48.1178C49.7033 49.781 51.2235 49.1525 52.3446 48.035C53.4658 46.9175 54.0963 45.4023 54.0979 43.8219V23.9529C54.0963 22.3725 53.4658 20.8573 52.3446 19.7398C51.2235 18.6223 49.7033 17.9938 48.1178 17.9922ZM52.1045 43.8219C52.103 44.8753 51.6824 45.8851 50.9351 46.63C50.1878 47.3749 49.1747 47.7941 48.1178 47.7957H20.2106C19.1537 47.7941 18.1406 47.3749 17.3933 46.63C16.646 45.8851 16.2254 44.8753 16.2238 43.8219V23.9529C16.2254 22.8995 16.646 21.8896 17.3933 21.1447C18.1406 20.3998 19.1537 19.9807 20.2106 19.9791H48.1178C49.1747 19.9807 50.1878 20.3998 50.9351 21.1447C51.6824 21.8896 52.103 22.8995 52.1045 23.9529V43.8219Z" fill="#F2AF37"/>
</svg>
