<svg width="73" height="73" viewBox="0 0 73 73" fill="none" xmlns="http://www.w3.org/2000/svg">
<path d="M36.4886 71.4995C55.8072 71.4995 71.4773 55.8939 71.4773 36.6319C71.4773 17.3699 55.8072 1.76422 36.4886 1.76422C17.1701 1.76422 1.5 17.3699 1.5 36.6319C1.5 55.8939 17.1701 71.4995 36.4886 71.4995Z" stroke="white" stroke-width="3"/>
<path d="M34.8971 35.6711H43.0699L42.1618 39.2917H34.8971V55.5842H31.2647V39.2917H24V35.6711H31.2647V32.2822C31.2647 29.0545 31.6025 27.8832 32.2346 26.7029C32.8539 25.5368 33.8107 24.5831 34.9806 23.9658C36.1648 23.3358 37.3399 22.9991 40.5781 22.9991C41.5262 22.9991 42.358 23.0896 43.0699 23.2706V26.6197H40.5781C38.1735 26.6197 37.4416 26.7609 36.6933 27.1591C36.1562 27.4388 35.7182 27.8761 35.4383 28.4118C35.0388 29.1559 34.8971 29.8854 34.8971 32.2822V35.6711Z" fill="white"/>
</svg>
