<svg width="487" height="346" viewBox="0 0 487 346" fill="none" xmlns="http://www.w3.org/2000/svg">
<path d="M176 295.5V285V278C176.5 278 177.5 277.5 178.5 276.5C179.5 275.5 179.5 275 180 274.5C180.5 274 180.5 271.5 181 270C181.5 268.5 181.5 266.5 181.5 265V263C181.5 262 182.5 261 185.5 260C188.5 259 187 260.5 187.5 261C187.9 261.4 191.333 262.167 193 262.5C194.167 262.333 198.5 262.2 206.5 263C216.5 264 212.5 263.5 215 264C217.5 264.5 222.5 264 223 264.5C223.4 264.9 229.167 264.667 232 264.5L237.5 265.5C239.333 266.667 243.1 269 243.5 269C244 269 246.5 268.5 247.5 268C248.5 267.5 248.5 267 251 264.5C253.5 262 251.5 263 252 262C252.5 261 252.5 260.5 253.5 258.5C254.5 256.5 255 255 256 254C257 253 256.5 252.5 258.5 251C260.5 249.5 260.5 249 262 248C263.5 247 274.5 240 276.5 239.5C278.5 239 279 239.5 281 239.5C283 239.5 283.5 239 286.5 239C289.5 239 289.5 238 294.5 237.5C299.5 237 296.5 237 299.5 236.5C302.5 236 304 235.5 306 235.5C308 235.5 308.5 235 309.5 234.5C310.3 234.1 311.5 234 312 234L316 233L319.5 232L322 237.5L326.5 244.5L329 249C329.667 250.5 331.1 253.6 331.5 254C331.9 254.4 333 258.167 333.5 260L340 267.033L333.5 270.5C331.167 274.333 325.3 283.3 320.5 288.5C318.5 290 316 291.5 314 291.5C312 291.5 307.5 295.5 306 295.5C304.8 295.5 298.833 298.5 296 300L280 311.5C278.833 312.333 276.1 314.3 274.5 315.5C272.5 317 270 318 262 321.5C255.6 324.3 250.333 324.667 248.5 324.5L242 327L225.5 333C223.833 334.167 220 337.2 218 340C216 342.8 212.833 341.167 211.5 340L201 345H192H188C186.167 341.833 182.5 335 182.5 333C182.5 330.5 183.5 329.5 182.5 327C181.5 324.5 180 314 179.5 311.5C179 309 176 305 176 300V295.5Z" fill="black" fill-opacity="0.3" stroke="white"/>
<path d="M347.5 266H341.5L340 267L334 259.5C333.5 257.667 332.4 253.9 332 253.5C331.6 253.1 330.167 250 329.5 248.5L327 244L322.5 237L319.5 232L335 227L343.5 223L351 219.5L360.5 215.5L365 210.5L370.5 194.5L372.5 187V178.5L368.5 173.5L365 168.5L366.5 158.5V151.5L367.5 147.5L370.5 146.5L372 141V133.5L372.5 130H374L376.5 132H378.754C379.464 133.141 380.131 134.262 380.5 135C381.5 137 382.5 140 385.5 142C387.9 143.6 390.167 145.667 391 146.5H405H412L420 150L425 155.5C425.833 156.333 427.5 158.4 427.5 160C427.5 162 433 164.5 433 166.5V168.5L427.5 184.5C427.5 181 421.9 189.8 417.5 199C417.14 199.753 416.827 200.417 416.556 201H417.5C415.817 203.908 413.515 207.546 416.556 201H412C410.667 202.667 408 206.6 408 209V217.5V221.5V228H405L391 245.5C387.5 247.333 379.7 251 376.5 251C373.3 251 375.167 253.667 376.5 255C375.833 256.5 373.9 260.2 371.5 263C369.682 265.121 370.044 265.846 370.762 266H371.5C371.257 266.04 370.991 266.049 370.762 266H356H347.5Z" fill="#F2AF37" fill-opacity="0.3" stroke="white"/>
<path d="M380 121.883L376 128.883C376.539 129.692 377.426 131.051 378.254 132.383H376L373.5 130.383H372L371.5 133.883V141.383L370 146.883L367 147.883L366 151.883V158.883L364.5 168.883H356.5H345.5H334.5H325L306.5 150.383H311H320.5H333C336.464 150.383 342.014 148.318 345.845 146.626C345.133 145.442 346.2 141.217 347 139.883C348.2 137.883 350.833 136.05 352 135.383C353.167 134.383 357.6 130.283 366 121.883C370 116.283 367.667 118.55 366 120.383C366.333 118.883 367.2 115.483 368 113.883C368.8 112.283 371 113.217 372 113.883L377 120.383L380 121.883Z" fill="#7FBF63" fill-opacity="0.3"/>
<path d="M306 150.383C306.123 150.383 306.293 150.383 306.5 150.383M306.5 150.383C307.642 150.383 309.871 150.383 311 150.383C313.167 150.383 318.1 150.383 320.5 150.383C323.5 150.383 327.5 150.383 333 150.383C337.4 150.383 345.167 147.05 348.5 145.383C344 150.383 345.8 141.883 347 139.883C348.2 137.883 350.833 136.05 352 135.383C353.167 134.383 357.6 130.283 366 121.883C370 116.283 367.667 118.55 366 120.383C366.333 118.883 367.2 115.483 368 113.883C368.8 112.283 371 113.217 372 113.883L377 120.383L380 121.883L376 128.883C376.539 129.692 377.426 131.051 378.254 132.383H376L373.5 130.383H372L371.5 133.883V141.383L370 146.883L367 147.883L366 151.883V158.883L364.5 168.883H356.5H345.5H334.5H325L306.5 150.383Z" stroke="white"/>
<path d="M307.5 135.5V140L305 145.5L303.5 145L299.5 143C298.5 142 296.5 139.9 296.5 139.5C296.5 139.1 295.5 138 295 137.5L294 135.5L290.5 128.5C291.833 130.667 295.9 131.9 299.5 117.5C301.1 115.1 304.167 114.167 305.5 114H307.5L310.5 120.5L307.5 125.5V129V135.5Z" fill="#F2AF37" fill-opacity="0.3" stroke="white"/>
<path d="M130.956 16.8252V20.3252L128.456 20.8252C127.789 21.3252 126.256 22.3252 125.456 22.3252C124.456 22.3252 123.956 24.3252 122.456 24.8252C120.956 25.3252 121.956 25.8252 121.456 26.3252C121.056 26.7251 117.622 27.1585 115.956 27.3252C110.789 28.1585 100.456 30.0252 100.456 30.8252C100.456 31.8252 101.456 32.8252 101.956 33.3252C102.456 33.8252 105.956 39.3252 107.456 40.3252C108.956 41.3252 110.956 43.8252 111.456 44.8252C111.856 45.6252 111.289 47.1585 110.956 47.8252L109.456 49.3252C109.122 50.8252 108.256 54.0252 107.456 54.8252C106.456 55.8252 104.956 56.3252 103.956 56.3252H100.456C98.4558 56.3252 97.4558 56.8252 95.4558 57.8252C93.8558 58.6252 94.1225 58.8252 94.4558 58.8252L91.9558 63.3252C91.4558 63.4919 90.3558 63.9252 89.9558 64.3252L86.9558 67.3252C86.4558 67.8252 83.9558 68.3252 83.4558 68.3252C82.9558 68.3252 81.4558 68.3252 77.9558 67.3252C74.4558 66.3252 75.4558 66.3252 74.4558 65.8252C73.6558 65.4252 72.4558 64.9919 71.9558 64.8252L68 62.8252C68.1809 60.6463 68.3431 58.4595 68.4558 56.8252C69.4558 54.8252 71.9558 48.6252 73.9558 39.8252C74.4558 34.8251 75.4558 26.3252 75.9558 23.3252L75.9559 23.325C76.4558 20.3252 76.4558 20.3251 77.4558 16.8252C78.2558 14.0252 78.7892 11.6585 78.9558 10.8252H82.9558H86.9558H90.4558L97.9558 16.8252L99.9558 13.8252L103.456 10.8252C105.122 10.8252 109.056 10.1252 111.456 7.32516C114.456 3.82516 114.456 7.32516 122.456 2.32516C124.856 -0.074836 125.789 1.32516 125.956 2.32516L127.456 7.32516V10.8252V13.8252L130.956 16.8252Z" fill="black" fill-opacity="0.3" stroke="white"/>
<path d="M68.5 83.8252L62 82.8252L64 80.8252C64.8333 77.6586 66.6 71.3252 67 71.3252C67.2648 71.3252 67.6901 67.0904 68.0442 62.8252L72 64.8252C72.5 64.9919 73.7 65.4252 74.5 65.8252C75.5 66.3252 74.5 66.3252 78 67.3252C81.5 68.3252 83 68.3252 83.5 68.3252C84 68.3252 86.5 67.8252 87 67.3252L90 64.3252C90.4 63.9252 91.5 63.4919 92 63.3252L94.5 58.8252C94.1667 58.8252 93.9 58.6252 95.5 57.8252C97.5 56.8252 98.5 56.3252 100.5 56.3252H104C105 56.3252 106.5 55.8252 107.5 54.8252C108.3 54.0252 109.167 50.8252 109.5 49.3252L111 47.8252C111.333 47.1586 111.9 45.6252 111.5 44.8252C111 43.8252 109 41.3252 107.5 40.3252C106 39.3252 102.5 33.8252 102 33.3252C101.5 32.8252 100.5 31.8252 100.5 30.8252C100.5 30.0252 110.833 28.1586 116 27.3252C117.667 27.1585 121.1 26.7252 121.5 26.3252C122 25.8252 121 25.3252 122.5 24.8252C124 24.3252 124.5 22.3252 125.5 22.3252C126.3 22.3252 127.833 21.3252 128.5 20.8252L131 20.3252C135 21.9919 143.6 25.5252 146 26.3252C148.4 27.1252 156 31.3252 159.5 33.3252C160.333 33.8252 162.6 34.9252 165 35.3252C168 35.8252 169 37.8252 172 39.8252C174.4 41.4252 178 45.4919 179.5 47.3252L184.5 50.8252C187.667 54.1585 194.4 61.1252 196 62.3252C197.6 63.5252 205.333 68.8252 209 71.3252H225.5H231.5L237 72.3252L242 72.8252C243.333 72.9919 246 73.4252 246 73.8252C246 74.3252 247 77.8252 247.5 78.8252C248 79.8252 248 80.3252 248.5 80.8252C248.9 81.2252 255 81.9919 258 82.3252L261.5 80.8252H262.256C263.925 83.3473 263.191 83.0099 266 87.8252C269.5 93.8252 268 90.8252 272.5 96.8252C274.5 98.8252 282 103.325 285.5 105.325V113.825V117.325V120.325L290.5 125.325V128.825L293.5 135.325L294.5 137.325C295 137.825 296 138.925 296 139.325C296 139.725 298 141.825 299 142.825L303 144.825L305.089 145.082L305 145.325C305.333 146.992 306.2 150.325 307 150.325H307.5L326 168.825H335.5H346.5H357.5H365.5L369 173.825L373 178.825V187.325L371 194.825L365.5 210.825L361 215.825L351.5 219.825L344 223.325L335.5 227.325L320.5 231.825L317 232.825L313 233.825C312.5 233.825 311.3 233.925 310.5 234.325C309.5 234.825 309 235.325 307 235.325C305 235.325 303.5 235.825 300.5 236.325C297.5 236.825 300.5 236.825 295.5 237.325C290.5 237.825 290.5 238.825 287.5 238.825C284.5 238.825 284 239.325 282 239.325C280 239.325 279.5 238.825 277.5 239.325C275.5 239.825 264.5 246.825 263 247.825C261.5 248.825 261.5 249.325 259.5 250.825C257.5 252.325 258 252.825 257 253.825C256 254.825 255.5 256.325 254.5 258.325C253.5 260.325 253.5 260.825 253 261.825C252.5 262.825 254.5 261.825 252 264.325C249.5 266.825 249.5 267.325 248.5 267.825C247.5 268.325 245 268.825 244.5 268.825C244.1 268.825 240.333 266.492 238.5 265.325L233 264.325C230.167 264.492 224.4 264.725 224 264.325C223.5 263.825 218.5 264.325 216 263.825C213.5 263.325 217.5 263.825 207.5 262.825C199.5 262.025 195.167 262.159 194 262.325C192.333 261.992 188.9 261.225 188.5 260.825C188 260.325 189.5 258.825 186.5 259.825C183.5 260.825 182.5 261.825 182.5 262.825V264.825C182.5 266.325 182.5 268.325 182 269.825C181.5 271.325 181.5 273.825 181 274.325C180.5 274.825 180.5 275.325 179.5 276.325C178.5 277.325 177.5 277.825 177 277.825V277.325V276.825C174.667 273.492 169.8 266.725 169 266.325C168 265.825 166 261.825 165 259.825C164 257.825 162.5 253.325 161.5 251.325C160.5 249.325 160.5 249.825 156 241.825C151.5 233.825 154.5 239.325 154 237.825C153.6 236.625 150.833 232.659 149.5 230.825L143.5 222.325C142 220.992 138.6 217.925 137 216.325C135 214.325 133 212.825 131.5 211.325L128.5 208.325C127.5 206.659 125.5 202.825 125.5 200.825C125.5 198.325 124 198.325 124 195.825C124 193.825 123.333 191.992 123 191.325V187.325L124 184.325V180.325C124.5 179.992 125.5 179.125 125.5 178.325V176.825L117.5 163.825C117.5 161.825 116 156.725 110 152.325C104 147.925 103.5 149.492 104 150.825C103.167 149.492 101.2 146.425 100 144.825C98.5 142.825 98 142.325 98 141.325V137.825V133.825C96.8333 132.325 94.3 129.225 93.5 128.825C92.7 128.425 91.1667 125.325 90.5 123.825L88.5 118.325L85 113.325L83 111.325V107.825L68.5 83.8252Z" fill="#1984C3" fill-opacity="0.3" stroke="white"/>
<ellipse cx="304.5" cy="117" rx="5.5" ry="1" fill="white"/>
<ellipse cx="372.5" cy="125" rx="5.5" ry="1" fill="white"/>
<ellipse cx="425.5" cy="162" rx="5.5" ry="1" fill="white"/>
<ellipse cx="117.5" cy="157" rx="5.5" ry="1" fill="white"/>
<path d="M325.026 112.172C324.558 112.46 324.054 112.688 323.514 112.856C322.974 113.012 322.398 113.09 321.786 113.09C320.85 113.09 319.998 112.904 319.23 112.532C318.474 112.16 317.82 111.674 317.268 111.074C316.728 110.474 316.308 109.784 316.008 109.004C315.708 108.224 315.558 107.426 315.558 106.61C315.558 105.758 315.714 104.942 316.026 104.162C316.35 103.382 316.788 102.692 317.34 102.092C317.904 101.492 318.57 101.018 319.338 100.67C320.106 100.31 320.94 100.13 321.84 100.13C322.764 100.13 323.604 100.322 324.36 100.706C325.128 101.078 325.782 101.57 326.322 102.182C326.862 102.794 327.282 103.49 327.582 104.27C327.882 105.05 328.032 105.842 328.032 106.646C328.032 107.474 327.882 108.266 327.582 109.022C327.294 109.778 326.886 110.45 326.358 111.038L328.104 113H325.764L325.026 112.172ZM321.804 110.894C322.128 110.894 322.428 110.858 322.704 110.786C322.992 110.702 323.256 110.594 323.496 110.462L321.552 108.266H323.892L324.774 109.256C325.014 108.872 325.2 108.452 325.332 107.996C325.464 107.54 325.53 107.078 325.53 106.61C325.53 106.058 325.44 105.524 325.26 105.008C325.092 104.492 324.846 104.036 324.522 103.64C324.21 103.244 323.82 102.926 323.352 102.686C322.896 102.446 322.38 102.326 321.804 102.326C321.204 102.326 320.67 102.452 320.202 102.704C319.734 102.944 319.344 103.268 319.032 103.676C318.72 104.084 318.48 104.546 318.312 105.062C318.156 105.566 318.078 106.082 318.078 106.61C318.078 107.162 318.162 107.696 318.33 108.212C318.498 108.728 318.738 109.184 319.05 109.58C319.374 109.976 319.764 110.294 320.22 110.534C320.688 110.774 321.216 110.894 321.804 110.894ZM332.26 113.18C331.804 113.18 331.378 113.108 330.982 112.964C330.586 112.808 330.244 112.598 329.956 112.334C329.668 112.058 329.44 111.74 329.272 111.38C329.116 111.02 329.038 110.624 329.038 110.192C329.038 109.748 329.134 109.34 329.326 108.968C329.53 108.584 329.806 108.26 330.154 107.996C330.514 107.732 330.94 107.528 331.432 107.384C331.924 107.228 332.464 107.15 333.052 107.15C333.472 107.15 333.88 107.186 334.276 107.258C334.684 107.33 335.044 107.432 335.356 107.564V107.024C335.356 106.4 335.176 105.92 334.816 105.584C334.468 105.248 333.946 105.08 333.25 105.08C332.746 105.08 332.254 105.17 331.774 105.35C331.294 105.53 330.802 105.794 330.298 106.142L329.56 104.612C330.772 103.808 332.08 103.406 333.484 103.406C334.84 103.406 335.89 103.742 336.634 104.414C337.39 105.074 337.768 106.034 337.768 107.294V110.228C337.768 110.48 337.81 110.66 337.894 110.768C337.99 110.876 338.14 110.936 338.344 110.948V113C337.936 113.084 337.582 113.126 337.282 113.126C336.826 113.126 336.472 113.024 336.22 112.82C335.98 112.616 335.83 112.346 335.77 112.01L335.716 111.488C335.296 112.04 334.786 112.46 334.186 112.748C333.586 113.036 332.944 113.18 332.26 113.18ZM332.944 111.416C333.352 111.416 333.736 111.344 334.096 111.2C334.468 111.056 334.756 110.864 334.96 110.624C335.224 110.42 335.356 110.192 335.356 109.94V108.86C335.068 108.752 334.756 108.668 334.42 108.608C334.084 108.536 333.76 108.5 333.448 108.5C332.824 108.5 332.314 108.644 331.918 108.932C331.522 109.208 331.324 109.562 331.324 109.994C331.324 110.402 331.48 110.744 331.792 111.02C332.104 111.284 332.488 111.416 332.944 111.416ZM345.604 112.514C345.28 112.658 344.884 112.802 344.416 112.946C343.948 113.09 343.456 113.162 342.94 113.162C342.604 113.162 342.286 113.12 341.986 113.036C341.698 112.952 341.44 112.82 341.212 112.64C340.996 112.448 340.822 112.208 340.69 111.92C340.558 111.62 340.492 111.26 340.492 110.84V105.422H339.25V103.568H340.492V100.508H342.904V103.568H344.884V105.422H342.904V110.03C342.904 110.366 342.988 110.606 343.156 110.75C343.336 110.882 343.552 110.948 343.804 110.948C344.056 110.948 344.302 110.906 344.542 110.822C344.782 110.738 344.974 110.666 345.118 110.606L345.604 112.514ZM349.434 113.18C348.978 113.18 348.552 113.108 348.156 112.964C347.76 112.808 347.418 112.598 347.13 112.334C346.842 112.058 346.614 111.74 346.446 111.38C346.29 111.02 346.212 110.624 346.212 110.192C346.212 109.748 346.308 109.34 346.5 108.968C346.704 108.584 346.98 108.26 347.328 107.996C347.688 107.732 348.114 107.528 348.606 107.384C349.098 107.228 349.638 107.15 350.226 107.15C350.646 107.15 351.054 107.186 351.45 107.258C351.858 107.33 352.218 107.432 352.53 107.564V107.024C352.53 106.4 352.35 105.92 351.99 105.584C351.642 105.248 351.12 105.08 350.424 105.08C349.92 105.08 349.428 105.17 348.948 105.35C348.468 105.53 347.976 105.794 347.472 106.142L346.734 104.612C347.946 103.808 349.254 103.406 350.658 103.406C352.014 103.406 353.064 103.742 353.808 104.414C354.564 105.074 354.942 106.034 354.942 107.294V110.228C354.942 110.48 354.984 110.66 355.068 110.768C355.164 110.876 355.314 110.936 355.518 110.948V113C355.11 113.084 354.756 113.126 354.456 113.126C354 113.126 353.646 113.024 353.394 112.82C353.154 112.616 353.004 112.346 352.944 112.01L352.89 111.488C352.47 112.04 351.96 112.46 351.36 112.748C350.76 113.036 350.118 113.18 349.434 113.18ZM350.118 111.416C350.526 111.416 350.91 111.344 351.27 111.2C351.642 111.056 351.93 110.864 352.134 110.624C352.398 110.42 352.53 110.192 352.53 109.94V108.86C352.242 108.752 351.93 108.668 351.594 108.608C351.258 108.536 350.934 108.5 350.622 108.5C349.998 108.5 349.488 108.644 349.092 108.932C348.696 109.208 348.498 109.562 348.498 109.994C348.498 110.402 348.654 110.744 348.966 111.02C349.278 111.284 349.662 111.416 350.118 111.416ZM362.812 105.656C362.08 105.668 361.426 105.812 360.85 106.088C360.274 106.352 359.86 106.754 359.608 107.294V113H357.196V103.568H359.41V105.584C359.578 105.26 359.776 104.972 360.004 104.72C360.232 104.456 360.478 104.228 360.742 104.036C361.006 103.844 361.27 103.7 361.534 103.604C361.81 103.496 362.074 103.442 362.326 103.442C362.458 103.442 362.554 103.442 362.614 103.442C362.686 103.442 362.752 103.448 362.812 103.46V105.656Z" fill="white"/>
<path d="M304.5 106.075C303.979 106.075 303.479 105.851 303.111 105.453C302.743 105.054 302.536 104.514 302.536 103.95C302.536 103.386 302.743 102.846 303.111 102.447C303.479 102.049 303.979 101.825 304.5 101.825C305.021 101.825 305.521 102.049 305.889 102.447C306.257 102.846 306.464 103.386 306.464 103.95C306.464 104.229 306.413 104.505 306.315 104.763C306.216 105.021 306.071 105.255 305.889 105.453C305.707 105.65 305.49 105.806 305.252 105.913C305.013 106.02 304.758 106.075 304.5 106.075ZM304.5 98C303.041 98 301.642 98.6269 300.611 99.7427C299.579 100.859 299 102.372 299 103.95C299 108.413 304.5 115 304.5 115C304.5 115 310 108.413 310 103.95C310 102.372 309.421 100.859 308.389 99.7427C307.358 98.6269 305.959 98 304.5 98Z" fill="white"/>
<path d="M389.732 118.894C390.32 118.894 390.812 118.774 391.208 118.534C391.616 118.294 391.94 117.982 392.18 117.598C392.432 117.214 392.606 116.776 392.702 116.284C392.81 115.78 392.864 115.264 392.864 114.736V108.22H395.33V114.736C395.33 115.612 395.222 116.434 395.006 117.202C394.802 117.97 394.472 118.642 394.016 119.218C393.572 119.794 392.996 120.25 392.288 120.586C391.58 120.922 390.734 121.09 389.75 121.09C388.73 121.09 387.86 120.916 387.14 120.568C386.432 120.208 385.856 119.74 385.412 119.164C384.968 118.576 384.644 117.898 384.44 117.13C384.248 116.362 384.152 115.564 384.152 114.736V108.22H386.636V114.736C386.636 115.276 386.684 115.798 386.78 116.302C386.888 116.794 387.062 117.232 387.302 117.616C387.554 118 387.878 118.312 388.274 118.552C388.67 118.78 389.156 118.894 389.732 118.894ZM400.923 108.22H403.119L407.979 121H405.423L404.235 117.814H399.771L398.601 121H396.045L400.923 108.22ZM403.785 116.068L402.021 111.046L400.185 116.068H403.785ZM418.255 118.822V121H409.381V108.22H418.093V110.398H411.865V113.476H417.247V115.492H411.865V118.822H418.255Z" fill="white"/>
<path d="M372.5 114.075C371.979 114.075 371.479 113.851 371.111 113.453C370.743 113.054 370.536 112.514 370.536 111.95C370.536 111.386 370.743 110.846 371.111 110.447C371.479 110.049 371.979 109.825 372.5 109.825C373.021 109.825 373.521 110.049 373.889 110.447C374.257 110.846 374.464 111.386 374.464 111.95C374.464 112.229 374.413 112.505 374.315 112.763C374.216 113.021 374.071 113.255 373.889 113.453C373.707 113.65 373.49 113.806 373.252 113.913C373.013 114.02 372.758 114.075 372.5 114.075ZM372.5 106C371.041 106 369.642 106.627 368.611 107.743C367.579 108.859 367 110.372 367 111.95C367 116.413 372.5 123 372.5 123C372.5 123 378 116.413 378 111.95C378 110.372 377.421 108.859 376.389 107.743C375.358 106.627 373.959 106 372.5 106Z" fill="white"/>
<path d="M442.786 158.09C441.85 158.09 440.998 157.91 440.23 157.55C439.474 157.178 438.82 156.692 438.268 156.092C437.728 155.48 437.308 154.784 437.008 154.004C436.708 153.224 436.558 152.426 436.558 151.61C436.558 150.758 436.714 149.942 437.026 149.162C437.35 148.382 437.788 147.692 438.34 147.092C438.904 146.492 439.57 146.018 440.338 145.67C441.106 145.31 441.94 145.13 442.84 145.13C443.764 145.13 444.604 145.322 445.36 145.706C446.128 146.078 446.782 146.57 447.322 147.182C447.862 147.794 448.282 148.49 448.582 149.27C448.882 150.05 449.032 150.842 449.032 151.646C449.032 152.498 448.876 153.314 448.564 154.094C448.252 154.862 447.82 155.546 447.268 156.146C446.716 156.734 446.056 157.208 445.288 157.568C444.52 157.916 443.686 158.09 442.786 158.09ZM439.078 151.61C439.078 152.162 439.162 152.696 439.33 153.212C439.498 153.728 439.738 154.184 440.05 154.58C440.374 154.976 440.764 155.294 441.22 155.534C441.688 155.774 442.216 155.894 442.804 155.894C443.404 155.894 443.932 155.774 444.388 155.534C444.856 155.282 445.246 154.952 445.558 154.544C445.882 154.136 446.122 153.68 446.278 153.176C446.446 152.66 446.53 152.138 446.53 151.61C446.53 151.058 446.44 150.524 446.26 150.008C446.092 149.492 445.846 149.036 445.522 148.64C445.21 148.244 444.82 147.932 444.352 147.704C443.896 147.464 443.38 147.344 442.804 147.344C442.204 147.344 441.67 147.47 441.202 147.722C440.734 147.962 440.344 148.286 440.032 148.694C439.72 149.09 439.48 149.546 439.312 150.062C439.156 150.566 439.078 151.082 439.078 151.61ZM465.355 158H462.943V152.708C462.943 151.952 462.811 151.4 462.547 151.052C462.295 150.704 461.941 150.53 461.485 150.53C461.005 150.53 460.555 150.716 460.135 151.088C459.715 151.448 459.415 151.922 459.235 152.51V158H456.823V152.708C456.823 151.952 456.691 151.4 456.427 151.052C456.175 150.704 455.821 150.53 455.365 150.53C454.897 150.53 454.447 150.71 454.015 151.07C453.595 151.43 453.295 151.904 453.115 152.492V158H450.703V148.568H452.881V150.314C453.229 149.702 453.703 149.234 454.303 148.91C454.915 148.574 455.611 148.406 456.391 148.406C457.183 148.406 457.795 148.598 458.227 148.982C458.659 149.366 458.935 149.84 459.055 150.404C459.439 149.756 459.925 149.264 460.513 148.928C461.101 148.58 461.773 148.406 462.529 148.406C463.105 148.406 463.579 148.514 463.951 148.73C464.323 148.946 464.611 149.228 464.815 149.576C465.019 149.924 465.157 150.32 465.229 150.764C465.313 151.208 465.355 151.658 465.355 152.114V158ZM470.029 158.18C469.573 158.18 469.147 158.108 468.751 157.964C468.355 157.808 468.013 157.598 467.725 157.334C467.437 157.058 467.209 156.74 467.041 156.38C466.885 156.02 466.807 155.624 466.807 155.192C466.807 154.748 466.903 154.34 467.095 153.968C467.299 153.584 467.575 153.26 467.923 152.996C468.283 152.732 468.709 152.528 469.201 152.384C469.693 152.228 470.233 152.15 470.821 152.15C471.241 152.15 471.649 152.186 472.045 152.258C472.453 152.33 472.813 152.432 473.125 152.564V152.024C473.125 151.4 472.945 150.92 472.585 150.584C472.237 150.248 471.715 150.08 471.019 150.08C470.515 150.08 470.023 150.17 469.543 150.35C469.063 150.53 468.571 150.794 468.067 151.142L467.329 149.612C468.541 148.808 469.849 148.406 471.253 148.406C472.609 148.406 473.659 148.742 474.403 149.414C475.159 150.074 475.537 151.034 475.537 152.294V155.228C475.537 155.48 475.579 155.66 475.663 155.768C475.759 155.876 475.909 155.936 476.113 155.948V158C475.705 158.084 475.351 158.126 475.051 158.126C474.595 158.126 474.241 158.024 473.989 157.82C473.749 157.616 473.599 157.346 473.539 157.01L473.485 156.488C473.065 157.04 472.555 157.46 471.955 157.748C471.355 158.036 470.713 158.18 470.029 158.18ZM470.713 156.416C471.121 156.416 471.505 156.344 471.865 156.2C472.237 156.056 472.525 155.864 472.729 155.624C472.993 155.42 473.125 155.192 473.125 154.94V153.86C472.837 153.752 472.525 153.668 472.189 153.608C471.853 153.536 471.529 153.5 471.217 153.5C470.593 153.5 470.083 153.644 469.687 153.932C469.291 154.208 469.093 154.562 469.093 154.994C469.093 155.402 469.249 155.744 469.561 156.02C469.873 156.284 470.257 156.416 470.713 156.416ZM486.557 158H484.145V152.708C484.145 151.952 484.013 151.4 483.749 151.052C483.485 150.704 483.119 150.53 482.651 150.53C482.411 150.53 482.165 150.578 481.913 150.674C481.661 150.77 481.421 150.908 481.193 151.088C480.977 151.256 480.779 151.46 480.599 151.7C480.419 151.94 480.287 152.204 480.203 152.492V158H477.791V148.568H479.969V150.314C480.317 149.714 480.821 149.246 481.481 148.91C482.141 148.574 482.885 148.406 483.713 148.406C484.301 148.406 484.781 148.514 485.153 148.73C485.525 148.946 485.813 149.228 486.017 149.576C486.221 149.924 486.359 150.32 486.431 150.764C486.515 151.208 486.557 151.658 486.557 152.114V158Z" fill="white"/>
<path d="M425.5 151.075C424.979 151.075 424.479 150.851 424.111 150.453C423.743 150.054 423.536 149.514 423.536 148.95C423.536 148.386 423.743 147.846 424.111 147.447C424.479 147.049 424.979 146.825 425.5 146.825C426.021 146.825 426.521 147.049 426.889 147.447C427.257 147.846 427.464 148.386 427.464 148.95C427.464 149.229 427.413 149.505 427.315 149.763C427.216 150.021 427.071 150.255 426.889 150.453C426.707 150.65 426.49 150.806 426.252 150.913C426.013 151.02 425.758 151.075 425.5 151.075ZM425.5 143C424.041 143 422.642 143.627 421.611 144.743C420.579 145.859 420 147.372 420 148.95C420 153.413 425.5 160 425.5 160C425.5 160 431 153.413 431 148.95C431 147.372 430.421 145.859 429.389 144.743C428.358 143.627 426.959 143 425.5 143Z" fill="white"/>
<path d="M8.946 143.568C8.862 143.484 8.706 143.37 8.478 143.226C8.262 143.082 7.992 142.944 7.668 142.812C7.356 142.668 7.014 142.548 6.642 142.452C6.27 142.356 5.892 142.308 5.508 142.308C4.824 142.308 4.314 142.434 3.978 142.686C3.642 142.938 3.474 143.292 3.474 143.748C3.474 144.012 3.534 144.234 3.654 144.414C3.786 144.582 3.972 144.732 4.212 144.864C4.452 144.996 4.752 145.116 5.112 145.224C5.484 145.332 5.91 145.446 6.39 145.566C7.014 145.734 7.578 145.914 8.082 146.106C8.598 146.298 9.03 146.538 9.378 146.826C9.738 147.114 10.014 147.462 10.206 147.87C10.398 148.266 10.494 148.758 10.494 149.346C10.494 150.03 10.362 150.618 10.098 151.11C9.846 151.59 9.498 151.98 9.054 152.28C8.622 152.58 8.118 152.802 7.542 152.946C6.978 153.078 6.384 153.144 5.76 153.144C4.8 153.144 3.852 153 2.916 152.712C1.98 152.424 1.14 152.016 0.396 151.488L1.494 149.346C1.602 149.454 1.794 149.598 2.07 149.778C2.358 149.946 2.694 150.12 3.078 150.3C3.462 150.468 3.888 150.612 4.356 150.732C4.824 150.852 5.304 150.912 5.796 150.912C7.164 150.912 7.848 150.474 7.848 149.598C7.848 149.322 7.77 149.088 7.614 148.896C7.458 148.704 7.236 148.536 6.948 148.392C6.66 148.248 6.312 148.116 5.904 147.996C5.496 147.876 5.04 147.744 4.536 147.6C3.924 147.432 3.39 147.252 2.934 147.06C2.49 146.856 2.118 146.622 1.818 146.358C1.518 146.082 1.29 145.77 1.134 145.422C0.99 145.062 0.918 144.636 0.918 144.144C0.918 143.496 1.038 142.92 1.278 142.416C1.518 141.912 1.848 141.492 2.268 141.156C2.7 140.82 3.198 140.568 3.762 140.4C4.326 140.22 4.932 140.13 5.58 140.13C6.48 140.13 7.308 140.274 8.064 140.562C8.82 140.838 9.48 141.168 10.044 141.552L8.946 143.568ZM14.7111 153.18C14.2551 153.18 13.8291 153.108 13.4331 152.964C13.0371 152.808 12.6951 152.598 12.4071 152.334C12.1191 152.058 11.8911 151.74 11.7231 151.38C11.5671 151.02 11.4891 150.624 11.4891 150.192C11.4891 149.748 11.5851 149.34 11.7771 148.968C11.9811 148.584 12.2571 148.26 12.6051 147.996C12.9651 147.732 13.3911 147.528 13.8831 147.384C14.3751 147.228 14.9151 147.15 15.5031 147.15C15.9231 147.15 16.3311 147.186 16.7271 147.258C17.1351 147.33 17.4951 147.432 17.8071 147.564V147.024C17.8071 146.4 17.6271 145.92 17.2671 145.584C16.9191 145.248 16.3971 145.08 15.7011 145.08C15.1971 145.08 14.7051 145.17 14.2251 145.35C13.7451 145.53 13.2531 145.794 12.7491 146.142L12.0111 144.612C13.2231 143.808 14.5311 143.406 15.9351 143.406C17.2911 143.406 18.3411 143.742 19.0851 144.414C19.8411 145.074 20.2191 146.034 20.2191 147.294V150.228C20.2191 150.48 20.2611 150.66 20.3451 150.768C20.4411 150.876 20.5911 150.936 20.7951 150.948V153C20.3871 153.084 20.0331 153.126 19.7331 153.126C19.2771 153.126 18.9231 153.024 18.6711 152.82C18.4311 152.616 18.2811 152.346 18.2211 152.01L18.1671 151.488C17.7471 152.04 17.2371 152.46 16.6371 152.748C16.0371 153.036 15.3951 153.18 14.7111 153.18ZM15.3951 151.416C15.8031 151.416 16.1871 151.344 16.5471 151.2C16.9191 151.056 17.2071 150.864 17.4111 150.624C17.6751 150.42 17.8071 150.192 17.8071 149.94V148.86C17.5191 148.752 17.2071 148.668 16.8711 148.608C16.5351 148.536 16.2111 148.5 15.8991 148.5C15.2751 148.5 14.7651 148.644 14.3691 148.932C13.9731 149.208 13.7751 149.562 13.7751 149.994C13.7751 150.402 13.9311 150.744 14.2431 151.02C14.5551 151.284 14.9391 151.416 15.3951 151.416ZM25.353 153.18C24.381 153.18 23.643 152.868 23.139 152.244C22.635 151.62 22.383 150.696 22.383 149.472V143.568H24.795V148.95C24.795 150.402 25.317 151.128 26.361 151.128C26.829 151.128 27.279 150.99 27.711 150.714C28.155 150.426 28.515 149.994 28.791 149.418V143.568H31.203V150.228C31.203 150.48 31.245 150.66 31.329 150.768C31.425 150.876 31.575 150.936 31.779 150.948V153C31.539 153.048 31.335 153.078 31.167 153.09C31.011 153.102 30.867 153.108 30.735 153.108C30.303 153.108 29.949 153.012 29.673 152.82C29.409 152.616 29.253 152.34 29.205 151.992L29.151 151.236C28.731 151.884 28.191 152.37 27.531 152.694C26.871 153.018 26.145 153.18 25.353 153.18ZM37.506 153.18C36.858 153.18 36.258 153.054 35.706 152.802C35.154 152.55 34.68 152.202 34.284 151.758C33.888 151.314 33.576 150.798 33.348 150.21C33.132 149.61 33.024 148.968 33.024 148.284C33.024 147.6 33.126 146.964 33.33 146.376C33.546 145.788 33.84 145.272 34.212 144.828C34.584 144.384 35.028 144.036 35.544 143.784C36.06 143.532 36.624 143.406 37.236 143.406C37.932 143.406 38.556 143.574 39.108 143.91C39.672 144.246 40.11 144.684 40.422 145.224V139.86H42.834V150.228C42.834 150.48 42.876 150.66 42.96 150.768C43.044 150.876 43.188 150.936 43.392 150.948V153C42.972 153.084 42.63 153.126 42.366 153.126C41.934 153.126 41.58 153.018 41.304 152.802C41.028 152.586 40.872 152.304 40.836 151.956L40.782 151.362C40.434 151.962 39.96 152.418 39.36 152.73C38.772 153.03 38.154 153.18 37.506 153.18ZM38.136 151.128C38.364 151.128 38.598 151.092 38.838 151.02C39.078 150.936 39.3 150.822 39.504 150.678C39.708 150.534 39.888 150.366 40.044 150.174C40.212 149.982 40.338 149.772 40.422 149.544V147.294C40.326 147.03 40.188 146.79 40.008 146.574C39.84 146.346 39.642 146.154 39.414 145.998C39.198 145.83 38.964 145.698 38.712 145.602C38.472 145.506 38.232 145.458 37.992 145.458C37.632 145.458 37.296 145.536 36.984 145.692C36.684 145.848 36.426 146.064 36.21 146.34C35.994 146.604 35.826 146.91 35.706 147.258C35.586 147.606 35.526 147.966 35.526 148.338C35.526 148.734 35.592 149.1 35.724 149.436C35.856 149.772 36.036 150.066 36.264 150.318C36.492 150.57 36.762 150.768 37.074 150.912C37.398 151.056 37.752 151.128 38.136 151.128ZM45.2015 153V143.568H47.6135V153H45.2015ZM45.2015 142.254V139.86H47.6135V142.254H45.2015ZM57.4211 140.22H59.6171L64.4771 153H61.9211L60.7331 149.814H56.2691L55.0991 153H52.5431L57.4211 140.22ZM60.2831 148.068L58.5191 143.046L56.6831 148.068H60.2831ZM71.2609 145.656C70.5289 145.668 69.8749 145.812 69.2989 146.088C68.7229 146.352 68.3089 146.754 68.0569 147.294V153H65.6449V143.568H67.8589V145.584C68.0269 145.26 68.2249 144.972 68.4529 144.72C68.6809 144.456 68.9269 144.228 69.1909 144.036C69.4549 143.844 69.7189 143.7 69.9829 143.604C70.2589 143.496 70.5229 143.442 70.7749 143.442C70.9069 143.442 71.0029 143.442 71.0629 143.442C71.1349 143.442 71.2009 143.448 71.2609 143.46V145.656ZM75.0568 153.18C74.6008 153.18 74.1748 153.108 73.7788 152.964C73.3828 152.808 73.0408 152.598 72.7528 152.334C72.4648 152.058 72.2368 151.74 72.0688 151.38C71.9128 151.02 71.8348 150.624 71.8348 150.192C71.8348 149.748 71.9308 149.34 72.1228 148.968C72.3268 148.584 72.6028 148.26 72.9508 147.996C73.3108 147.732 73.7368 147.528 74.2288 147.384C74.7208 147.228 75.2608 147.15 75.8488 147.15C76.2688 147.15 76.6768 147.186 77.0728 147.258C77.4808 147.33 77.8408 147.432 78.1528 147.564V147.024C78.1528 146.4 77.9728 145.92 77.6128 145.584C77.2648 145.248 76.7428 145.08 76.0468 145.08C75.5428 145.08 75.0508 145.17 74.5708 145.35C74.0908 145.53 73.5988 145.794 73.0948 146.142L72.3568 144.612C73.5688 143.808 74.8768 143.406 76.2808 143.406C77.6368 143.406 78.6868 143.742 79.4308 144.414C80.1868 145.074 80.5648 146.034 80.5648 147.294V150.228C80.5648 150.48 80.6068 150.66 80.6908 150.768C80.7868 150.876 80.9368 150.936 81.1408 150.948V153C80.7328 153.084 80.3788 153.126 80.0788 153.126C79.6228 153.126 79.2688 153.024 79.0168 152.82C78.7768 152.616 78.6268 152.346 78.5668 152.01L78.5128 151.488C78.0928 152.04 77.5828 152.46 76.9828 152.748C76.3828 153.036 75.7408 153.18 75.0568 153.18ZM75.7408 151.416C76.1488 151.416 76.5328 151.344 76.8928 151.2C77.2648 151.056 77.5528 150.864 77.7568 150.624C78.0208 150.42 78.1528 150.192 78.1528 149.94V148.86C77.8648 148.752 77.5528 148.668 77.2168 148.608C76.8808 148.536 76.5568 148.5 76.2448 148.5C75.6208 148.5 75.1108 148.644 74.7148 148.932C74.3188 149.208 74.1208 149.562 74.1208 149.994C74.1208 150.402 74.2768 150.744 74.5888 151.02C74.9008 151.284 75.2848 151.416 75.7408 151.416ZM88.1827 153.18C87.4627 153.18 86.8207 153.018 86.2567 152.694C85.6927 152.37 85.2487 151.926 84.9247 151.362V153H82.8187V139.86H85.2307V145.224C85.5667 144.648 86.0047 144.204 86.5447 143.892C87.0967 143.568 87.7387 143.406 88.4707 143.406C89.0827 143.406 89.6407 143.538 90.1447 143.802C90.6487 144.066 91.0807 144.42 91.4407 144.864C91.8127 145.308 92.0947 145.83 92.2867 146.43C92.4907 147.03 92.5927 147.66 92.5927 148.32C92.5927 149.004 92.4787 149.64 92.2507 150.228C92.0347 150.816 91.7287 151.332 91.3327 151.776C90.9367 152.208 90.4687 152.55 89.9287 152.802C89.3887 153.054 88.8067 153.18 88.1827 153.18ZM87.5167 151.128C87.9007 151.128 88.2547 151.056 88.5787 150.912C88.9027 150.756 89.1787 150.552 89.4067 150.3C89.6347 150.048 89.8087 149.754 89.9287 149.418C90.0607 149.082 90.1267 148.722 90.1267 148.338C90.1267 147.954 90.0667 147.588 89.9467 147.24C89.8267 146.892 89.6527 146.586 89.4247 146.322C89.2087 146.058 88.9507 145.848 88.6507 145.692C88.3507 145.536 88.0207 145.458 87.6607 145.458C87.1207 145.458 86.6347 145.638 86.2027 145.998C85.7827 146.346 85.4587 146.778 85.2307 147.294V149.544C85.3147 149.784 85.4347 150 85.5907 150.192C85.7587 150.384 85.9447 150.552 86.1487 150.696C86.3527 150.828 86.5747 150.936 86.8147 151.02C87.0547 151.092 87.2887 151.128 87.5167 151.128ZM94.2269 153V143.568H96.6389V153H94.2269ZM94.2269 142.254V139.86H96.6389V142.254H94.2269ZM101.389 153.18C100.933 153.18 100.507 153.108 100.111 152.964C99.7148 152.808 99.3728 152.598 99.0848 152.334C98.7968 152.058 98.5688 151.74 98.4008 151.38C98.2448 151.02 98.1668 150.624 98.1668 150.192C98.1668 149.748 98.2628 149.34 98.4548 148.968C98.6588 148.584 98.9348 148.26 99.2828 147.996C99.6428 147.732 100.069 147.528 100.561 147.384C101.053 147.228 101.593 147.15 102.181 147.15C102.601 147.15 103.009 147.186 103.405 147.258C103.813 147.33 104.173 147.432 104.485 147.564V147.024C104.485 146.4 104.305 145.92 103.945 145.584C103.597 145.248 103.075 145.08 102.379 145.08C101.875 145.08 101.383 145.17 100.903 145.35C100.423 145.53 99.9308 145.794 99.4268 146.142L98.6888 144.612C99.9008 143.808 101.209 143.406 102.613 143.406C103.969 143.406 105.019 143.742 105.763 144.414C106.519 145.074 106.897 146.034 106.897 147.294V150.228C106.897 150.48 106.939 150.66 107.023 150.768C107.119 150.876 107.269 150.936 107.473 150.948V153C107.065 153.084 106.711 153.126 106.411 153.126C105.955 153.126 105.601 153.024 105.349 152.82C105.109 152.616 104.959 152.346 104.899 152.01L104.845 151.488C104.425 152.04 103.915 152.46 103.315 152.748C102.715 153.036 102.073 153.18 101.389 153.18ZM102.073 151.416C102.481 151.416 102.865 151.344 103.225 151.2C103.597 151.056 103.885 150.864 104.089 150.624C104.353 150.42 104.485 150.192 104.485 149.94V148.86C104.197 148.752 103.885 148.668 103.549 148.608C103.213 148.536 102.889 148.5 102.577 148.5C101.953 148.5 101.443 148.644 101.047 148.932C100.651 149.208 100.453 149.562 100.453 149.994C100.453 150.402 100.609 150.744 100.921 151.02C101.233 151.284 101.617 151.416 102.073 151.416Z" fill="white"/>
<path d="M117.5 146.075C116.979 146.075 116.479 145.851 116.111 145.453C115.743 145.054 115.536 144.514 115.536 143.95C115.536 143.386 115.743 142.846 116.111 142.447C116.479 142.049 116.979 141.825 117.5 141.825C118.021 141.825 118.521 142.049 118.889 142.447C119.257 142.846 119.464 143.386 119.464 143.95C119.464 144.229 119.413 144.505 119.315 144.763C119.216 145.021 119.071 145.255 118.889 145.453C118.707 145.65 118.49 145.806 118.252 145.913C118.013 146.02 117.758 146.075 117.5 146.075ZM117.5 138C116.041 138 114.642 138.627 113.611 139.743C112.579 140.859 112 142.372 112 143.95C112 148.413 117.5 155 117.5 155C117.5 155 123 148.413 123 143.95C123 142.372 122.421 140.859 121.389 139.743C120.358 138.627 118.959 138 117.5 138Z" fill="white"/>
</svg>
