<svg width="22" height="34" viewBox="0 0 22 34" fill="none" xmlns="http://www.w3.org/2000/svg">
<path d="M10.9998 16.2597C10.027 16.2597 9.094 15.8697 8.40613 15.1756C7.71825 14.4814 7.33181 13.5398 7.33181 12.5581C7.33181 11.5764 7.71825 10.6349 8.40613 9.94068C9.094 9.2465 10.027 8.85651 10.9998 8.85651C11.9726 8.85651 12.9055 9.2465 13.5934 9.94068C14.2813 10.6349 14.6677 11.5764 14.6677 12.5581C14.6677 13.0442 14.5728 13.5256 14.3885 13.9747C14.2042 14.4238 13.934 14.8318 13.5934 15.1756C13.2528 15.5193 12.8484 15.7919 12.4034 15.978C11.9584 16.164 11.4814 16.2597 10.9998 16.2597ZM10.9998 2.1936C8.27592 2.1936 5.66363 3.28558 3.73758 5.2293C1.81154 7.17302 0.729492 9.80928 0.729492 12.5581C0.729492 20.3315 10.9998 31.8065 10.9998 31.8065C10.9998 31.8065 21.27 20.3315 21.27 12.5581C21.27 9.80928 20.188 7.17302 18.2619 5.2293C16.3359 3.28558 13.7236 2.1936 10.9998 2.1936Z" fill="white"/>
</svg>
