<svg width="56" height="56" viewBox="0 0 56 56" fill="none" xmlns="http://www.w3.org/2000/svg">
<rect width="56" height="55.1385" rx="27.5692" fill="black" fill-opacity="0.3"/>
<rect x="0.5" y="0.5" width="55" height="54.1385" rx="27.0692" stroke="white" stroke-opacity="0.2"/>
<path d="M18.5236 15.4688C17.2669 15.4688 16.0617 15.9758 15.173 16.8783C14.2844 17.7808 13.7852 19.0049 13.7852 20.2813V20.7649L28.0005 28.5395L42.2159 20.7673V20.2813C42.2159 19.0049 41.7167 17.7808 40.8281 16.8783C39.9394 15.9758 38.7342 15.4688 37.4775 15.4688H18.5236ZM42.2159 23.4984L28.5621 30.965C28.3895 31.0594 28.1965 31.1087 28.0005 31.1087C27.8045 31.1087 27.6116 31.0594 27.439 30.965L13.7852 23.4984V34.7188C13.7852 35.9951 14.2844 37.2192 15.173 38.1217C16.0617 39.0242 17.2669 39.5313 18.5236 39.5313H37.4775C38.7342 39.5313 39.9394 39.0242 40.8281 38.1217C41.7167 37.2192 42.2159 35.9951 42.2159 34.7188V23.4984Z" fill="white" fill-opacity="0.8"/>
</svg>
