<svg width="56" height="55" viewBox="0 0 56 55" fill="none" xmlns="http://www.w3.org/2000/svg">
<rect width="56" height="55" rx="27.5" fill="black" fill-opacity="0.3"/>
<rect x="0.5" y="0.5" width="55" height="54" rx="27" stroke="white" stroke-opacity="0.2"/>
<path d="M38.9987 33.1478V37.666C38.9989 37.9895 38.8763 38.301 38.6558 38.5377C38.4352 38.7744 38.1331 38.9186 37.8105 38.9412C37.2521 38.9796 36.796 39 36.4433 39C25.1522 39 16 29.8473 16 18.5556C16 18.2029 16.0192 17.7467 16.0588 17.1883C16.0814 16.8656 16.2256 16.5635 16.4623 16.343C16.6989 16.1224 17.0104 15.9999 17.3339 16H21.8519C22.0104 15.9998 22.1633 16.0586 22.2809 16.1649C22.3984 16.2711 22.4723 16.4173 22.4882 16.575C22.5176 16.8689 22.5444 17.1027 22.57 17.2803C22.8239 19.0525 23.3443 20.7761 24.1134 22.3927C24.2348 22.6483 24.1556 22.9537 23.9256 23.1172L21.1683 25.0876C22.8542 29.016 25.9847 32.1467 29.9129 33.8327L31.8806 31.0803C31.961 30.9679 32.0784 30.8872 32.2122 30.8524C32.346 30.8177 32.4877 30.8309 32.6127 30.8899C34.229 31.6578 35.9521 32.1769 37.7236 32.4297C37.9012 32.4552 38.135 32.4821 38.4263 32.5114C38.5838 32.5276 38.7296 32.6016 38.8356 32.7192C38.9416 32.8368 38.9989 32.9895 38.9987 33.1478Z" fill="white" fill-opacity="0.8"/>
</svg>
